<?xml version="1.0" encoding="UTF-8" standalone="no"?>
<!DOCTYPE svg PUBLIC "-//W3C//DTD SVG 1.1//EN"
 "http://www.w3.org/Graphics/SVG/1.1/DTD/svg11.dtd">
<!-- Generated by graphviz version 2.43.0 (0)
 -->
<!-- Title: %3 Pages: 1 -->
<svg width="294pt" height="661pt"
 viewBox="0.00 0.00 294.00 661.00" xmlns="http://www.w3.org/2000/svg" xmlns:xlink="http://www.w3.org/1999/xlink">
<g id="graph0" class="graph" transform="scale(1.39 1.39) rotate(0) translate(4 472)">
<title>%3</title>
<polygon fill="white" stroke="transparent" points="-4,4 -4,-472 207.5,-472 207.5,4 -4,4"/>
<!-- Lib android -->
<g id="node1" class="node">
<title>Lib android</title>
<polygon fill="lightgreen" stroke="transparent" points="98,-180 0,-180 0,-144 98,-144 98,-180"/>
<text text-anchor="middle" x="49" y="-158.3" font-family="Times,serif" font-size="14.00">Lib android</text>
</g>
<!-- Lib kotlin jvm -->
<g id="node3" class="node">
<title>Lib kotlin jvm</title>
<polygon fill="mediumorchid" stroke="transparent" points="190.5,-36 75.5,-36 75.5,0 190.5,0 190.5,-36"/>
<text text-anchor="middle" x="133" y="-14.3" font-family="Times,serif" font-size="14.00">Lib kotlin jvm</text>
</g>
<!-- Lib android&#45;&gt;Lib kotlin jvm -->
<g id="edge1" class="edge">
<title>Lib android&#45;&gt;Lib kotlin jvm</title>
<path fill="none" stroke="black" stroke-dasharray="1,5" d="M59.13,-143.87C73.7,-119.24 100.68,-73.64 117.69,-44.88"/>
<polygon fill="black" stroke="black" points="120.75,-46.58 122.83,-36.19 114.73,-43.01 120.75,-46.58"/>
</g>
<!-- Lib java -->
<g id="node2" class="node">
<title>Lib java</title>
<polygon fill="orange" stroke="transparent" points="189.5,-180 116.5,-180 116.5,-144 189.5,-144 189.5,-180"/>
<text text-anchor="middle" x="153" y="-158.3" font-family="Times,serif" font-size="14.00">Lib java</text>
</g>
<!-- Lib kotlin mp -->
<g id="node4" class="node">
<title>Lib kotlin mp</title>
<polygon fill="mediumslateblue" stroke="transparent" points="203.5,-324 92.5,-324 92.5,-288 203.5,-288 203.5,-324"/>
<text text-anchor="middle" x="148" y="-302.3" font-family="Times,serif" font-size="14.00">Lib kotlin mp</text>
</g>
<!-- Lib kotlin mp&#45;&gt;Lib android -->
<g id="edge2" class="edge">
<title>Lib kotlin mp&#45;&gt;Lib android</title>
<path fill="none" stroke="black" d="M136.06,-287.87C118.81,-263.14 86.82,-217.24 66.79,-188.51"/>
<polygon fill="black" stroke="black" points="69.57,-186.39 60.98,-180.19 63.83,-190.39 69.57,-186.39"/>
</g>
<!-- Lib kotlin mp&#45;&gt;Lib java -->
<g id="edge3" class="edge">
<title>Lib kotlin mp&#45;&gt;Lib java</title>
<path fill="none" stroke="orange" stroke-width="2" d="M148.6,-287.87C149.46,-263.67 151.02,-219.21 152.04,-190.39"/>
<polygon fill="orange" stroke="orange" stroke-width="2" points="155.54,-190.31 152.39,-180.19 148.54,-190.06 155.54,-190.31"/>
</g>
<!-- Lib kotlin mp&#45;&gt;Lib kotlin jvm -->
<g id="edge4" class="edge">
<title>Lib kotlin mp&#45;&gt;Lib kotlin jvm</title>
<path fill="none" stroke="black" d="M159.99,-287.82C178.9,-258.6 212.19,-197.22 199,-144 189.8,-106.87 167.34,-68.62 151.17,-44.37"/>
<polygon fill="black" stroke="black" points="154.06,-42.4 145.54,-36.1 148.28,-46.34 154.06,-42.4"/>
</g>
<!-- app android -->
<g id="node5" class="node">
<title>app android</title>
<polygon fill="limegreen" stroke="black" stroke-width="3" points="152,-468 50,-468 50,-432 152,-432 152,-468"/>
<text text-anchor="middle" x="101" y="-446.3" font-family="Times,serif" font-size="14.00">app android</text>
</g>
<!-- app android&#45;&gt;Lib android -->
<g id="edge5" class="edge">
<title>app android&#45;&gt;Lib android</title>
<path fill="none" stroke="black" stroke-dasharray="1,5" d="M97.9,-431.97C89.22,-384.19 64.57,-248.62 53.96,-190.27"/>
<polygon fill="black" stroke="black" points="57.38,-189.52 52.15,-180.31 50.49,-190.77 57.38,-189.52"/>
</g>
<!-- app android&#45;&gt;Lib kotlin mp -->
<g id="edge6" class="edge">
<title>app android&#45;&gt;Lib kotlin mp</title>
<path fill="none" stroke="black" stroke-dasharray="1,5" d="M106.67,-431.87C114.71,-407.56 129.52,-362.82 139.06,-334.01"/>
<polygon fill="black" stroke="black" points="142.49,-334.78 142.31,-324.19 135.85,-332.58 142.49,-334.78"/>
</g>
</g>
</svg>
