<?xml version="1.0" encoding="UTF-8" standalone="no"?>
<!DOCTYPE svg PUBLIC "-//W3C//DTD SVG 1.1//EN"
 "http://www.w3.org/Graphics/SVG/1.1/DTD/svg11.dtd">
<!-- Generated by graphviz version 2.43.0 (0)
 -->
<!-- Title: %3 Pages: 1 -->
<svg width="384pt" height="585pt"
 viewBox="0.00 0.00 383.50 585.00" xmlns="http://www.w3.org/2000/svg" xmlns:xlink="http://www.w3.org/1999/xlink">
<g id="graph0" class="graph" transform="scale(1 1) rotate(0) translate(4 581)">
<title>%3</title>
<polygon fill="MidnightBlue" stroke="transparent" points="-4,4 -4,-581 379.5,-581 379.5,4 -4,4"/>
<!-- :sample&#45;app&#45;android -->
<g id="node1" class="node">
<title>:sample&#45;app&#45;android</title>
<polygon fill="limegreen" stroke="#4c0000" points="163,-563 8,-563 8,-539 163,-539 163,-533 181,-551 163,-569 163,-563"/>
<polygon fill="none" stroke="#4c0000" points="167,-567 4,-567 4,-535 167,-535 167,-529 185,-551 167,-573 167,-567"/>
<polygon fill="none" stroke="#4c0000" points="171,-571 0,-571 0,-531 171,-531 171,-525 189,-551 171,-577 171,-571"/>
<text text-anchor="middle" x="94.5" y="-547.3" font-family="Courier New" font-size="14.00" fill="white">:sample&#45;app&#45;android</text>
</g>
<!-- :sample&#45;lib&#45;android -->
<g id="node2" class="node">
<title>:sample&#45;lib&#45;android</title>
<defs>
<linearGradient id="l_0" gradientUnits="userSpaceOnUse" x1="262.5" y1="-183" x2="262.5" y2="-219" >
<stop offset="0" style="stop-color:crimson;stop-opacity:1.;"/>
<stop offset="1" style="stop-color:#008b8b;stop-opacity:1.;"/>
</linearGradient>
</defs>
<polygon fill="url(#l_0)" stroke="#4c0000" points="349,-219 176,-219 176,-183 349,-183 349,-219"/>
<polygon fill="none" stroke="#4c0000" points="353,-223 172,-223 172,-179 353,-179 353,-223"/>
<polygon fill="none" stroke="#4c0000" points="357,-227 168,-227 168,-175 357,-175 357,-227"/>
<text text-anchor="middle" x="262.5" y="-197.3" font-family="Courier New" font-size="14.00" fill="white">:sample&#45;lib&#45;android</text>
</g>
<!-- :sample&#45;app&#45;android&#45;&gt;:sample&#45;lib&#45;android -->
<g id="edge1" class="edge">
<title>:sample&#45;app&#45;android&#45;&gt;:sample&#45;lib&#45;android</title>
<path fill="none" stroke="red" stroke-dasharray="1,5" d="M69.1,-514.87C42.58,-473.51 8.58,-403.65 37.5,-350 67.73,-293.93 129.52,-255.62 180.71,-232.05"/>
<polygon fill="none" stroke="red" points="69.18,-514.99 75.83,-517.78 75.81,-524.99 69.16,-522.2 69.18,-514.99"/>
<polygon fill="none" stroke="red" points="180.83,-231.99 184.68,-225.89 191.79,-227.09 187.94,-233.19 180.83,-231.99"/>
<text text-anchor="middle" x="94" y="-372.3" font-family="Times,serif" font-size="14.00" fill="white">implementation</text>
</g>
<!-- :sample&#45;lib&#45;kotlin&#45;mp -->
<g id="node4" class="node">
<title>:sample&#45;lib&#45;kotlin&#45;mp</title>
<polygon fill="mediumslateblue" stroke="#4c0000" points="357.5,-394 167.5,-394 167.5,-358 357.5,-358 357.5,-394"/>
<polygon fill="none" stroke="#4c0000" points="361.5,-398 163.5,-398 163.5,-354 361.5,-354 361.5,-398"/>
<polygon fill="none" stroke="#4c0000" points="365.5,-402 159.5,-402 159.5,-350 365.5,-350 365.5,-402"/>
<text text-anchor="middle" x="262.5" y="-372.3" font-family="Courier New" font-size="14.00" fill="red">:sample&#45;lib&#45;kotlin&#45;mp</text>
</g>
<!-- :sample&#45;app&#45;android&#45;&gt;:sample&#45;lib&#45;kotlin&#45;mp -->
<g id="edge2" class="edge">
<title>:sample&#45;app&#45;android&#45;&gt;:sample&#45;lib&#45;kotlin&#45;mp</title>
<path fill="none" stroke="red" stroke-dasharray="1,5" d="M127.63,-515.88C157.08,-485.56 199.91,-441.45 229.36,-411.13"/>
<polygon fill="none" stroke="red" points="127.29,-516.24 125.98,-523.33 118.93,-524.84 120.24,-517.75 127.29,-516.24"/>
<polygon fill="none" stroke="red" points="229.68,-410.79 230.99,-403.7 238.04,-402.19 236.73,-409.28 229.68,-410.79"/>
<text text-anchor="middle" x="240" y="-459.8" font-family="Times,serif" font-size="14.00" fill="white">implementation</text>
</g>
<!-- :sample&#45;lib&#45;kotlin&#45;jvm -->
<g id="node3" class="node">
<title>:sample&#45;lib&#45;kotlin&#45;jvm</title>
<polygon fill="mediumorchid" stroke="#4c0000" points="361.5,-44 163.5,-44 163.5,-8 361.5,-8 361.5,-44"/>
<polygon fill="none" stroke="#4c0000" points="365.5,-48 159.5,-48 159.5,-4 365.5,-4 365.5,-48"/>
<polygon fill="none" stroke="#4c0000" points="369.5,-52 155.5,-52 155.5,0 369.5,0 369.5,-52"/>
<text text-anchor="middle" x="262.5" y="-22.3" font-family="Courier New" font-size="14.00" fill="white">:sample&#45;lib&#45;kotlin&#45;jvm</text>
</g>
<!-- :sample&#45;lib&#45;android&#45;&gt;:sample&#45;lib&#45;kotlin&#45;jvm -->
<g id="edge3" class="edge">
<title>:sample&#45;lib&#45;android&#45;&gt;:sample&#45;lib&#45;kotlin&#45;jvm</title>
<path fill="none" stroke="red" stroke-dasharray="1,5" d="M262.5,-162.83C262.5,-133.74 262.5,-93.45 262.5,-64.32"/>
<polygon fill="none" stroke="red" points="262.5,-162.84 266.5,-168.84 262.5,-174.84 258.5,-168.84 262.5,-162.84"/>
<polygon fill="none" stroke="red" points="262.5,-64.19 258.5,-58.19 262.5,-52.19 266.5,-58.19 262.5,-64.19"/>
<text text-anchor="middle" x="319" y="-109.8" font-family="Times,serif" font-size="14.00" fill="white">implementation</text>
</g>
<!-- :sample&#45;lib&#45;kotlin&#45;mp&#45;&gt;:sample&#45;lib&#45;android -->
<g id="edge4" class="edge">
<title>:sample&#45;lib&#45;kotlin&#45;mp&#45;&gt;:sample&#45;lib&#45;android</title>
<path fill="none" stroke="red" d="M262.5,-349.84C262.5,-320.76 262.5,-272.61 262.5,-239.2"/>
<polygon fill="none" stroke="red" points="262.5,-239.19 258.5,-233.19 262.5,-227.19 266.5,-233.19 262.5,-239.19"/>
<text text-anchor="middle" x="273.5" y="-284.8" font-family="Times,serif" font-size="14.00" fill="white">api</text>
</g>
</g>
</svg>
