<?xml version="1.0" encoding="UTF-8" standalone="no"?>
<!DOCTYPE svg PUBLIC "-//W3C//DTD SVG 1.1//EN"
 "http://www.w3.org/Graphics/SVG/1.1/DTD/svg11.dtd">
<!-- Generated by graphviz version 2.43.0 (0)
 -->
<!-- Title: %3 Pages: 1 -->
<svg width="315pt" height="461pt"
 viewBox="0.00 0.00 226.50 332.00" xmlns="http://www.w3.org/2000/svg" xmlns:xlink="http://www.w3.org/1999/xlink">
<g id="graph0" class="graph" transform="scale(1.39 1.39) rotate(0) translate(4 328)">
<title>%3</title>
<polygon fill="white" stroke="transparent" points="-4,4 -4,-328 222.5,-328 222.5,4 -4,4"/>
<!-- abc_android -->
<g id="node1" class="node">
<title>abc_android</title>
<polygon fill="#55ff55" stroke="transparent" points="103,-180 0,-180 0,-144 103,-144 103,-180"/>
<text text-anchor="middle" x="51.5" y="-158.3" font-family="Times,serif" font-size="14.00">abc_android</text>
</g>
<!-- abc_kotlin_jvm -->
<g id="node3" class="node">
<title>abc_kotlin_jvm</title>
<polygon fill="#ca66ff" stroke="transparent" points="199.5,-36 77.5,-36 77.5,0 199.5,0 199.5,-36"/>
<text text-anchor="middle" x="138.5" y="-14.3" font-family="Times,serif" font-size="14.00">abc_kotlin_jvm</text>
</g>
<!-- abc_android&#45;&gt;abc_kotlin_jvm -->
<g id="edge1" class="edge">
<title>abc_android&#45;&gt;abc_kotlin_jvm</title>
<path fill="none" stroke="black" stroke-dasharray="1,5" d="M61.99,-143.87C77.08,-119.24 105.02,-73.64 122.64,-44.88"/>
<polygon fill="black" stroke="black" points="125.73,-46.54 127.97,-36.19 119.76,-42.89 125.73,-46.54"/>
</g>
<!-- abc_java -->
<g id="node2" class="node">
<title>abc_java</title>
<polygon fill="#ff8800" stroke="transparent" points="198,-180 121,-180 121,-144 198,-144 198,-180"/>
<text text-anchor="middle" x="159.5" y="-158.3" font-family="Times,serif" font-size="14.00">abc_java</text>
</g>
<!-- abc_kotlin_mp -->
<g id="node4" class="node">
<title>abc_kotlin_mp</title>
<polygon fill="#9d8df1" stroke="black" stroke-width="3" points="218.5,-324 100.5,-324 100.5,-288 218.5,-288 218.5,-324"/>
<text text-anchor="middle" x="159.5" y="-302.3" font-family="Times,serif" font-size="14.00">abc_kotlin_mp</text>
</g>
<!-- abc_kotlin_mp&#45;&gt;abc_android -->
<g id="edge2" class="edge">
<title>abc_kotlin_mp&#45;&gt;abc_android</title>
<path fill="none" stroke="black" d="M146.47,-287.87C127.66,-263.14 92.75,-217.24 70.9,-188.51"/>
<polygon fill="black" stroke="black" points="73.41,-186.03 64.57,-180.19 67.84,-190.27 73.41,-186.03"/>
</g>
<!-- abc_kotlin_mp&#45;&gt;abc_java -->
<g id="edge3" class="edge">
<title>abc_kotlin_mp&#45;&gt;abc_java</title>
<path fill="none" stroke="black" stroke-dasharray="1,5" d="M159.5,-287.87C159.5,-263.67 159.5,-219.21 159.5,-190.39"/>
<polygon fill="black" stroke="black" points="163,-190.19 159.5,-180.19 156,-190.19 163,-190.19"/>
</g>
<!-- abc_kotlin_mp&#45;&gt;abc_kotlin_jvm -->
<g id="edge4" class="edge">
<title>abc_kotlin_mp&#45;&gt;abc_kotlin_jvm</title>
<path fill="none" stroke="black" d="M171.05,-287.73C189.22,-258.38 221.11,-196.82 207.5,-144 197.86,-106.59 174.38,-68.4 157.49,-44.24"/>
<polygon fill="black" stroke="black" points="160.26,-42.11 151.6,-36.01 154.57,-46.18 160.26,-42.11"/>
</g>
</g>
</svg>
