<?xml version="1.0" encoding="UTF-8" standalone="no"?>
<!DOCTYPE svg PUBLIC "-//W3C//DTD SVG 1.1//EN"
 "http://www.w3.org/Graphics/SVG/1.1/DTD/svg11.dtd">
<!-- Generated by graphviz version 2.43.0 (0)
 -->
<!-- Title: %3 Pages: 1 -->
<svg width="301pt" height="461pt"
 viewBox="0.00 0.00 301.00 461.00" xmlns="http://www.w3.org/2000/svg" xmlns:xlink="http://www.w3.org/1999/xlink">
<g id="graph0" class="graph" transform="scale(1.39 1.39) rotate(0) translate(4 328)">
<title>%3</title>
<polygon fill="white" stroke="transparent" points="-4,4 -4,-328 212.5,-328 212.5,4 -4,4"/>
<!-- Lib android -->
<g id="node1" class="node">
<title>Lib android</title>
<polygon fill="#55ff55" stroke="transparent" points="98,-180 0,-180 0,-144 98,-144 98,-180"/>
<text text-anchor="middle" x="49" y="-158.3" font-family="Times,serif" font-size="14.00">Lib android</text>
</g>
<!-- Lib kotlin jvm -->
<g id="node3" class="node">
<title>Lib kotlin jvm</title>
<polygon fill="#ca66ff" stroke="transparent" points="190.5,-36 75.5,-36 75.5,0 190.5,0 190.5,-36"/>
<text text-anchor="middle" x="133" y="-14.3" font-family="Times,serif" font-size="14.00">Lib kotlin jvm</text>
</g>
<!-- Lib android&#45;&gt;Lib kotlin jvm -->
<g id="edge1" class="edge">
<title>Lib android&#45;&gt;Lib kotlin jvm</title>
<path fill="none" stroke="black" stroke-dasharray="1,5" d="M59.13,-143.87C73.7,-119.24 100.68,-73.64 117.69,-44.88"/>
<polygon fill="black" stroke="black" points="120.75,-46.58 122.83,-36.19 114.73,-43.01 120.75,-46.58"/>
</g>
<!-- Lib java -->
<g id="node2" class="node">
<title>Lib java</title>
<polygon fill="#ff8800" stroke="transparent" points="189.5,-180 116.5,-180 116.5,-144 189.5,-144 189.5,-180"/>
<text text-anchor="middle" x="153" y="-158.3" font-family="Times,serif" font-size="14.00">Lib java</text>
</g>
<!-- Lib kotlin mp -->
<g id="node4" class="node">
<title>Lib kotlin mp</title>
<polygon fill="#9d8df1" stroke="black" stroke-width="3" points="208.5,-324 97.5,-324 97.5,-288 208.5,-288 208.5,-324"/>
<text text-anchor="middle" x="153" y="-302.3" font-family="Times,serif" font-size="14.00">Lib kotlin mp</text>
</g>
<!-- Lib kotlin mp&#45;&gt;Lib android -->
<g id="edge2" class="edge">
<title>Lib kotlin mp&#45;&gt;Lib android</title>
<path fill="none" stroke="blue" d="M140.46,-287.87C122.34,-263.14 88.73,-217.24 67.68,-188.51"/>
<polygon fill="blue" stroke="blue" points="70.32,-186.19 61.59,-180.19 64.67,-190.33 70.32,-186.19"/>
</g>
<!-- Lib kotlin mp&#45;&gt;Lib java -->
<g id="edge3" class="edge">
<title>Lib kotlin mp&#45;&gt;Lib java</title>
<path fill="none" stroke="orange" stroke-width="2" d="M153,-287.87C153,-263.67 153,-219.21 153,-190.39"/>
<polygon fill="orange" stroke="orange" stroke-width="2" points="156.5,-190.19 153,-180.19 149.5,-190.19 156.5,-190.19"/>
</g>
<!-- Lib kotlin mp&#45;&gt;Lib kotlin jvm -->
<g id="edge4" class="edge">
<title>Lib kotlin mp&#45;&gt;Lib kotlin jvm</title>
<path fill="none" stroke="blue" d="M164.07,-287.72C181.5,-258.35 212.07,-196.76 199,-144 189.8,-106.87 167.34,-68.62 151.17,-44.37"/>
<polygon fill="blue" stroke="blue" points="154.06,-42.4 145.54,-36.1 148.28,-46.34 154.06,-42.4"/>
</g>
</g>
</svg>
