<?xml version="1.0" encoding="UTF-8" standalone="no"?>
<!DOCTYPE svg PUBLIC "-//W3C//DTD SVG 1.1//EN"
 "http://www.w3.org/Graphics/SVG/1.1/DTD/svg11.dtd">
<!-- Generated by graphviz version 2.43.0 (0)
 -->
<!-- Title: %3 Pages: 1 -->
<svg width="288pt" height="166pt"
 viewBox="0.00 0.00 288.00 166.00" xmlns="http://www.w3.org/2000/svg" xmlns:xlink="http://www.w3.org/1999/xlink">
<g id="graph0" class="graph" transform="scale(1 1) rotate(0) translate(4 162)">
<title>%3</title>
<polygon fill="white" stroke="transparent" points="-4,4 -4,-162 284,-162 284,4 -4,4"/>
<!-- table1 -->
<g id="node1" class="node">
<title>table1</title>
<polygon fill="none" stroke="black" points="8,-129 8,-154 165,-154 165,-129 8,-129"/>
<text text-anchor="start" x="42" y="-137.8" font-family="Times,serif" font-size="14.00">Android App</text>
<polygon fill="#09ad35" stroke="transparent" points="165,-129 165,-154 272,-154 272,-129 165,-129"/>
<polygon fill="none" stroke="black" points="165,-129 165,-154 272,-154 272,-129 165,-129"/>
<text text-anchor="start" x="170" y="-137.8" font-family="Times,serif" font-size="14.00">module&#45;name</text>
<polygon fill="none" stroke="black" points="8,-104 8,-129 165,-129 165,-104 8,-104"/>
<text text-anchor="start" x="13" y="-112.8" font-family="Times,serif" font-size="14.00">Kotlin Multiplatform</text>
<polygon fill="#9d8df1" stroke="transparent" points="165,-104 165,-129 272,-129 272,-104 165,-104"/>
<polygon fill="none" stroke="black" points="165,-104 165,-129 272,-129 272,-104 165,-104"/>
<text text-anchor="start" x="170" y="-112.8" font-family="Times,serif" font-size="14.00">module&#45;name</text>
<polygon fill="none" stroke="black" points="8,-79 8,-104 165,-104 165,-79 8,-79"/>
<text text-anchor="start" x="29.5" y="-87.8" font-family="Times,serif" font-size="14.00">Android Library</text>
<polygon fill="#55ff55" stroke="transparent" points="165,-79 165,-104 272,-104 272,-79 165,-79"/>
<polygon fill="none" stroke="black" points="165,-79 165,-104 272,-104 272,-79 165,-79"/>
<text text-anchor="start" x="170" y="-87.8" font-family="Times,serif" font-size="14.00">module&#45;name</text>
<polygon fill="none" stroke="black" points="8,-54 8,-79 165,-79 165,-54 8,-54"/>
<text text-anchor="start" x="48.5" y="-62.8" font-family="Times,serif" font-size="14.00">Kotlin JVM</text>
<polygon fill="#ca66ff" stroke="transparent" points="165,-54 165,-79 272,-79 272,-54 165,-54"/>
<polygon fill="none" stroke="black" points="165,-54 165,-79 272,-79 272,-54 165,-54"/>
<text text-anchor="start" x="170" y="-62.8" font-family="Times,serif" font-size="14.00">module&#45;name</text>
<polygon fill="none" stroke="black" points="8,-29 8,-54 165,-54 165,-29 8,-29"/>
<text text-anchor="start" x="71" y="-37.8" font-family="Times,serif" font-size="14.00">Java</text>
<polygon fill="#ff8800" stroke="transparent" points="165,-29 165,-54 272,-54 272,-29 165,-29"/>
<polygon fill="none" stroke="black" points="165,-29 165,-54 272,-54 272,-29 165,-29"/>
<text text-anchor="start" x="170" y="-37.8" font-family="Times,serif" font-size="14.00">module&#45;name</text>
<polygon fill="none" stroke="black" points="8,-4 8,-29 165,-29 165,-4 8,-4"/>
<text text-anchor="start" x="65.5" y="-12.8" font-family="Times,serif" font-size="14.00">Other</text>
<polygon fill="#808080" stroke="transparent" points="165,-4 165,-29 272,-29 272,-4 165,-4"/>
<polygon fill="none" stroke="black" points="165,-4 165,-29 272,-29 272,-4 165,-4"/>
<text text-anchor="start" x="170" y="-12.8" font-family="Times,serif" font-size="14.00">module&#45;name</text>
</g>
</g>
</svg>
