<?xml version="1.0" encoding="UTF-8" standalone="no"?>
<!DOCTYPE svg PUBLIC "-//W3C//DTD SVG 1.1//EN"
 "http://www.w3.org/Graphics/SVG/1.1/DTD/svg11.dtd">
<!-- Generated by graphviz version 2.43.0 (0)
 -->
<!-- Title: %3 Pages: 1 -->
<svg width="592pt" height="191pt"
 viewBox="0.00 0.00 592.00 191.00" xmlns="http://www.w3.org/2000/svg" xmlns:xlink="http://www.w3.org/1999/xlink">
<g id="graph0" class="graph" transform="scale(1 1) rotate(0) translate(4 187)">
<title>%3</title>
<polygon fill="white" stroke="transparent" points="-4,4 -4,-187 587.5,-187 587.5,4 -4,4"/>
<!-- modules -->
<g id="node1" class="node">
<title>modules</title>
<polygon fill="#dddddd" stroke="transparent" points="8,-153.5 8,-178.5 296,-178.5 296,-153.5 8,-153.5"/>
<polygon fill="none" stroke="black" points="8,-153.5 8,-178.5 296,-178.5 296,-153.5 8,-153.5"/>
<text text-anchor="start" x="97.5" y="-163.3" font-family="Times,serif" font-weight="bold" font-size="14.00">Module Types</text>
<polygon fill="none" stroke="black" points="8,-128.5 8,-153.5 165,-153.5 165,-128.5 8,-128.5"/>
<text text-anchor="start" x="42" y="-137.3" font-family="Times,serif" font-size="14.00">Android App</text>
<polygon fill="#09ad35" stroke="transparent" points="165,-128.5 165,-153.5 296,-153.5 296,-128.5 165,-128.5"/>
<polygon fill="none" stroke="black" points="165,-128.5 165,-153.5 296,-153.5 296,-128.5 165,-128.5"/>
<text text-anchor="start" x="170" y="-137.3" font-family="Times,serif" font-size="14.00">&lt;module&#45;name&gt;</text>
<polygon fill="none" stroke="black" points="8,-103.5 8,-128.5 165,-128.5 165,-103.5 8,-103.5"/>
<text text-anchor="start" x="13" y="-112.3" font-family="Times,serif" font-size="14.00">Kotlin Multiplatform</text>
<polygon fill="#9d8df1" stroke="transparent" points="165,-103.5 165,-128.5 296,-128.5 296,-103.5 165,-103.5"/>
<polygon fill="none" stroke="black" points="165,-103.5 165,-128.5 296,-128.5 296,-103.5 165,-103.5"/>
<text text-anchor="start" x="170" y="-112.3" font-family="Times,serif" font-size="14.00">&lt;module&#45;name&gt;</text>
<polygon fill="none" stroke="black" points="8,-78.5 8,-103.5 165,-103.5 165,-78.5 8,-78.5"/>
<text text-anchor="start" x="29.5" y="-87.3" font-family="Times,serif" font-size="14.00">Android Library</text>
<polygon fill="#55ff55" stroke="transparent" points="165,-78.5 165,-103.5 296,-103.5 296,-78.5 165,-78.5"/>
<polygon fill="none" stroke="black" points="165,-78.5 165,-103.5 296,-103.5 296,-78.5 165,-78.5"/>
<text text-anchor="start" x="170" y="-87.3" font-family="Times,serif" font-size="14.00">&lt;module&#45;name&gt;</text>
<polygon fill="none" stroke="black" points="8,-53.5 8,-78.5 165,-78.5 165,-53.5 8,-53.5"/>
<text text-anchor="start" x="48.5" y="-62.3" font-family="Times,serif" font-size="14.00">Kotlin JVM</text>
<polygon fill="#ca66ff" stroke="transparent" points="165,-53.5 165,-78.5 296,-78.5 296,-53.5 165,-53.5"/>
<polygon fill="none" stroke="black" points="165,-53.5 165,-78.5 296,-78.5 296,-53.5 165,-53.5"/>
<text text-anchor="start" x="170" y="-62.3" font-family="Times,serif" font-size="14.00">&lt;module&#45;name&gt;</text>
<polygon fill="none" stroke="black" points="8,-28.5 8,-53.5 165,-53.5 165,-28.5 8,-28.5"/>
<text text-anchor="start" x="71" y="-37.3" font-family="Times,serif" font-size="14.00">Java</text>
<polygon fill="#ff8800" stroke="transparent" points="165,-28.5 165,-53.5 296,-53.5 296,-28.5 165,-28.5"/>
<polygon fill="none" stroke="black" points="165,-28.5 165,-53.5 296,-53.5 296,-28.5 165,-28.5"/>
<text text-anchor="start" x="170" y="-37.3" font-family="Times,serif" font-size="14.00">&lt;module&#45;name&gt;</text>
<polygon fill="none" stroke="black" points="8,-3.5 8,-28.5 165,-28.5 165,-3.5 8,-3.5"/>
<text text-anchor="start" x="65.5" y="-12.3" font-family="Times,serif" font-size="14.00">Other</text>
<polygon fill="#808080" stroke="transparent" points="165,-3.5 165,-28.5 296,-28.5 296,-3.5 165,-3.5"/>
<polygon fill="none" stroke="black" points="165,-3.5 165,-28.5 296,-28.5 296,-3.5 165,-3.5"/>
<text text-anchor="start" x="170" y="-12.3" font-family="Times,serif" font-size="14.00">&lt;module&#45;name&gt;</text>
</g>
<!-- links -->
<g id="node2" class="node">
<title>links</title>
<polygon fill="#dddddd" stroke="transparent" points="331,-116.5 331,-141.5 576,-141.5 576,-116.5 331,-116.5"/>
<polygon fill="none" stroke="black" points="331,-116.5 331,-141.5 576,-141.5 576,-116.5 331,-116.5"/>
<text text-anchor="start" x="411" y="-126.3" font-family="Times,serif" font-weight="bold" font-size="14.00">Link Types</text>
<polygon fill="none" stroke="black" points="331,-91.5 331,-116.5 517,-116.5 517,-91.5 331,-91.5"/>
<text text-anchor="start" x="336" y="-100.3" font-family="Times,serif" font-size="14.00">jvmMainImplementation</text>
<polygon fill="orange" stroke="transparent" points="517,-91.5 517,-116.5 576,-116.5 576,-91.5 517,-91.5"/>
<polygon fill="none" stroke="black" points="517,-91.5 517,-116.5 576,-116.5 576,-91.5 517,-91.5"/>
<text text-anchor="start" x="530" y="-100.3" font-family="Times,serif" font-size="14.00">Bold</text>
<polygon fill="none" stroke="black" points="331,-66.5 331,-91.5 517,-91.5 517,-66.5 331,-66.5"/>
<text text-anchor="start" x="413" y="-75.3" font-family="Times,serif" font-size="14.00">api</text>
<polygon fill="none" stroke="black" points="517,-66.5 517,-91.5 576,-91.5 576,-66.5 517,-66.5"/>
<text text-anchor="start" x="528" y="-75.3" font-family="Times,serif" font-size="14.00">Solid</text>
<polygon fill="none" stroke="black" points="331,-41.5 331,-66.5 517,-66.5 517,-41.5 331,-41.5"/>
<text text-anchor="start" x="367.5" y="-50.3" font-family="Times,serif" font-size="14.00">implementation</text>
<polygon fill="none" stroke="black" points="517,-41.5 517,-66.5 576,-66.5 576,-41.5 517,-41.5"/>
<text text-anchor="start" x="522" y="-50.3" font-family="Times,serif" font-size="14.00">Dotted</text>
</g>
</g>
</svg>
