<?xml version="1.0" encoding="UTF-8" standalone="no"?>
<!DOCTYPE svg PUBLIC "-//W3C//DTD SVG 1.1//EN"
 "http://www.w3.org/Graphics/SVG/1.1/DTD/svg11.dtd">
<!-- Generated by graphviz version 2.43.0 (0)
 -->
<!-- Title: %3 Pages: 1 -->
<svg width="276pt" height="540pt"
 viewBox="0.00 0.00 275.50 540.00" xmlns="http://www.w3.org/2000/svg" xmlns:xlink="http://www.w3.org/1999/xlink">
<g id="graph0" class="graph" transform="scale(1 1) rotate(0) translate(4 536)">
<title>%3</title>
<polygon fill="MidnightBlue" stroke="transparent" points="-4,4 -4,-536 271.5,-536 271.5,4 -4,4"/>
<!-- :sample&#45;app&#45;android -->
<g id="node1" class="node">
<title>:sample&#45;app&#45;android</title>
<polygon fill="limegreen" stroke="#4c0000" points="163,-518 8,-518 8,-494 163,-494 163,-488 181,-506 163,-524 163,-518"/>
<polygon fill="none" stroke="#4c0000" points="167,-522 4,-522 4,-490 167,-490 167,-484 185,-506 167,-528 167,-522"/>
<polygon fill="none" stroke="#4c0000" points="171,-526 0,-526 0,-486 171,-486 171,-480 189,-506 171,-532 171,-526"/>
<text text-anchor="middle" x="94.5" y="-502.3" font-family="Courier New" font-size="14.00">:sample&#45;app&#45;android</text>
</g>
<!-- :sample&#45;lib&#45;android -->
<g id="node2" class="node">
<title>:sample&#45;lib&#45;android</title>
<defs>
<linearGradient id="l_0" gradientUnits="userSpaceOnUse" x1="160.5" y1="-168" x2="160.5" y2="-204" >
<stop offset="0" style="stop-color:crimson;stop-opacity:1.;"/>
<stop offset="1" style="stop-color:#008b8b;stop-opacity:1.;"/>
</linearGradient>
</defs>
<polygon fill="url(#l_0)" stroke="#4c0000" points="247,-204 74,-204 74,-168 247,-168 247,-204"/>
<polygon fill="none" stroke="#4c0000" points="251,-208 70,-208 70,-164 251,-164 251,-208"/>
<polygon fill="none" stroke="#4c0000" points="255,-212 66,-212 66,-160 255,-160 255,-212"/>
<text text-anchor="middle" x="160.5" y="-182.3" font-family="Courier New" font-size="14.00">:sample&#45;lib&#45;android</text>
</g>
<!-- :sample&#45;app&#45;android&#45;&gt;:sample&#45;lib&#45;android -->
<g id="edge1" class="edge">
<title>:sample&#45;app&#45;android&#45;&gt;:sample&#45;lib&#45;android</title>
<path fill="none" stroke="red" stroke-dasharray="1,5" d="M73.09,-469.01C53.48,-431.24 30.09,-370.43 48.5,-320 62.9,-280.56 94.71,-244.71 120.77,-220.2"/>
<polygon fill="none" stroke="red" points="73.3,-469.4 79.67,-472.78 79.01,-479.96 72.64,-476.58 73.3,-469.4"/>
<polygon fill="none" stroke="red" points="120.86,-220.12 122.58,-213.11 129.71,-212.01 127.99,-219.01 120.86,-220.12"/>
</g>
<!-- :sample&#45;lib&#45;kotlin&#45;mp -->
<g id="node4" class="node">
<title>:sample&#45;lib&#45;kotlin&#45;mp</title>
<polygon fill="mediumslateblue" stroke="#4c0000" points="255.5,-364 65.5,-364 65.5,-328 255.5,-328 255.5,-364"/>
<polygon fill="none" stroke="#4c0000" points="259.5,-368 61.5,-368 61.5,-324 259.5,-324 259.5,-368"/>
<polygon fill="none" stroke="#4c0000" points="263.5,-372 57.5,-372 57.5,-320 263.5,-320 263.5,-372"/>
<text text-anchor="middle" x="160.5" y="-342.3" font-family="Courier New" font-size="14.00" fill="white">:sample&#45;lib&#45;kotlin&#45;mp</text>
</g>
<!-- :sample&#45;app&#45;android&#45;&gt;:sample&#45;lib&#45;kotlin&#45;mp -->
<g id="edge2" class="edge">
<title>:sample&#45;app&#45;android&#45;&gt;:sample&#45;lib&#45;kotlin&#45;mp</title>
<path fill="none" stroke="red" stroke-dasharray="1,5" d="M109.59,-468.86C120.3,-443.23 134.61,-408.97 145.33,-383.31"/>
<polygon fill="none" stroke="red" points="109.58,-468.89 110.96,-475.97 104.96,-479.96 103.58,-472.89 109.58,-468.89"/>
<polygon fill="none" stroke="red" points="145.36,-383.25 143.98,-376.17 149.98,-372.18 151.36,-379.26 145.36,-383.25"/>
</g>
<!-- :sample&#45;lib&#45;kotlin&#45;jvm -->
<g id="node3" class="node">
<title>:sample&#45;lib&#45;kotlin&#45;jvm</title>
<polygon fill="mediumorchid" stroke="#4c0000" points="259.5,-44 61.5,-44 61.5,-8 259.5,-8 259.5,-44"/>
<polygon fill="none" stroke="#4c0000" points="263.5,-48 57.5,-48 57.5,-4 263.5,-4 263.5,-48"/>
<polygon fill="none" stroke="#4c0000" points="267.5,-52 53.5,-52 53.5,0 267.5,0 267.5,-52"/>
<text text-anchor="middle" x="160.5" y="-22.3" font-family="Courier New" font-size="14.00">:sample&#45;lib&#45;kotlin&#45;jvm</text>
</g>
<!-- :sample&#45;lib&#45;android&#45;&gt;:sample&#45;lib&#45;kotlin&#45;jvm -->
<g id="edge3" class="edge">
<title>:sample&#45;lib&#45;android&#45;&gt;:sample&#45;lib&#45;kotlin&#45;jvm</title>
<path fill="none" stroke="red" stroke-dasharray="1,5" d="M160.5,-147.68C160.5,-122.6 160.5,-89.65 160.5,-64.52"/>
<polygon fill="none" stroke="red" points="160.5,-147.96 164.5,-153.96 160.5,-159.96 156.5,-153.96 160.5,-147.96"/>
<polygon fill="none" stroke="red" points="160.5,-64.18 156.5,-58.18 160.5,-52.18 164.5,-58.18 160.5,-64.18"/>
</g>
<!-- :sample&#45;lib&#45;kotlin&#45;mp&#45;&gt;:sample&#45;lib&#45;android -->
<g id="edge4" class="edge">
<title>:sample&#45;lib&#45;kotlin&#45;mp&#45;&gt;:sample&#45;lib&#45;android</title>
<path fill="none" stroke="red" d="M160.5,-319.96C160.5,-294.27 160.5,-253.98 160.5,-224.48"/>
<polygon fill="none" stroke="red" points="160.5,-224.18 156.5,-218.18 160.5,-212.18 164.5,-218.18 160.5,-224.18"/>
</g>
</g>
</svg>
