<?xml version="1.0" encoding="UTF-8" standalone="no"?>
<!DOCTYPE svg PUBLIC "-//W3C//DTD SVG 1.1//EN"
 "http://www.w3.org/Graphics/SVG/1.1/DTD/svg11.dtd">
<!-- Generated by graphviz version 2.43.0 (0)
 -->
<!-- Title: %3 Pages: 1 -->
<svg width="323pt" height="661pt"
 viewBox="0.00 0.00 323.00 661.00" xmlns="http://www.w3.org/2000/svg" xmlns:xlink="http://www.w3.org/1999/xlink">
<g id="graph0" class="graph" transform="scale(1.39 1.39) rotate(0) translate(4 472)">
<title>%3</title>
<!-- :sample&#45;app&#45;android -->
<g id="node1" class="node">
<title>:sample&#45;app&#45;android</title>
<polygon fill="limegreen" stroke="transparent" points="166,-468 4,-468 4,-432 166,-432 166,-468"/>
<text text-anchor="middle" x="85" y="-446.3" font-family="Times,serif" font-size="14.00">:sample&#45;app&#45;android</text>
</g>
<!-- :sample&#45;lib&#45;android -->
<g id="node2" class="node">
<title>:sample&#45;lib&#45;android</title>
<polygon fill="lightgreen" stroke="black" stroke-width="3" points="162,-180 8,-180 8,-144 162,-144 162,-180"/>
<text text-anchor="middle" x="85" y="-158.3" font-family="Times,serif" font-size="14.00">:sample&#45;lib&#45;android</text>
</g>
<!-- :sample&#45;app&#45;android&#45;&gt;:sample&#45;lib&#45;android -->
<g id="edge1" class="edge">
<title>:sample&#45;app&#45;android&#45;&gt;:sample&#45;lib&#45;android</title>
<path fill="none" stroke="black" stroke-dasharray="1,5" d="M76.93,-431.77C64.17,-402.5 41.52,-341.03 49,-288 53.91,-253.21 66.15,-214.54 74.99,-189.56"/>
<polygon fill="black" stroke="black" points="78.32,-190.65 78.43,-180.06 71.74,-188.27 78.32,-190.65"/>
</g>
<!-- :sample&#45;lib&#45;kotlin&#45;mp -->
<g id="node4" class="node">
<title>:sample&#45;lib&#45;kotlin&#45;mp</title>
<polygon fill="mediumslateblue" stroke="transparent" points="224.5,-324 57.5,-324 57.5,-288 224.5,-288 224.5,-324"/>
<text text-anchor="middle" x="141" y="-302.3" font-family="Times,serif" font-size="14.00">:sample&#45;lib&#45;kotlin&#45;mp</text>
</g>
<!-- :sample&#45;app&#45;android&#45;&gt;:sample&#45;lib&#45;kotlin&#45;mp -->
<g id="edge2" class="edge">
<title>:sample&#45;app&#45;android&#45;&gt;:sample&#45;lib&#45;kotlin&#45;mp</title>
<path fill="none" stroke="black" stroke-dasharray="1,5" d="M91.75,-431.87C101.38,-407.46 119.14,-362.43 130.5,-333.64"/>
<polygon fill="black" stroke="black" points="133.81,-334.78 134.22,-324.19 127.3,-332.21 133.81,-334.78"/>
</g>
<!-- :sample&#45;lib&#45;kotlin&#45;jvm -->
<g id="node3" class="node">
<title>:sample&#45;lib&#45;kotlin&#45;jvm</title>
<polygon fill="mediumorchid" stroke="transparent" points="170,-36 0,-36 0,0 170,0 170,-36"/>
<text text-anchor="middle" x="85" y="-14.3" font-family="Times,serif" font-size="14.00">:sample&#45;lib&#45;kotlin&#45;jvm</text>
</g>
<!-- :sample&#45;lib&#45;android&#45;&gt;:sample&#45;lib&#45;kotlin&#45;jvm -->
<g id="edge3" class="edge">
<title>:sample&#45;lib&#45;android&#45;&gt;:sample&#45;lib&#45;kotlin&#45;jvm</title>
<path fill="none" stroke="black" stroke-dasharray="1,5" d="M85,-143.87C85,-119.67 85,-75.21 85,-46.39"/>
<polygon fill="black" stroke="black" points="88.5,-46.19 85,-36.19 81.5,-46.19 88.5,-46.19"/>
</g>
<!-- :sample&#45;lib&#45;kotlin&#45;mp&#45;&gt;:sample&#45;lib&#45;android -->
<g id="edge4" class="edge">
<title>:sample&#45;lib&#45;kotlin&#45;mp&#45;&gt;:sample&#45;lib&#45;android</title>
<path fill="none" stroke="black" d="M134.25,-287.87C124.62,-263.46 106.86,-218.43 95.5,-189.64"/>
<polygon fill="black" stroke="black" points="98.7,-188.21 91.78,-180.19 92.19,-190.78 98.7,-188.21"/>
</g>
</g>
</svg>
