<?xml version="1.0" encoding="UTF-8" standalone="no"?>
<!DOCTYPE svg PUBLIC "-//W3C//DTD SVG 1.1//EN"
 "http://www.w3.org/Graphics/SVG/1.1/DTD/svg11.dtd">
<!-- Generated by graphviz version 2.43.0 (0)
 -->
<!-- Title: %3 Pages: 1 -->
<svg width="284pt" height="540pt"
 viewBox="0.00 0.00 284.00 540.00" xmlns="http://www.w3.org/2000/svg" xmlns:xlink="http://www.w3.org/1999/xlink">
<g id="graph0" class="graph" transform="scale(1 1) rotate(0) translate(4 536)">
<title>%3</title>
<polygon fill="MidnightBlue" stroke="transparent" points="-4,4 -4,-536 280,-536 280,4 -4,4"/>
<!-- :sample&#45;app&#45;android -->
<g id="node1" class="node">
<title>:sample&#45;app&#45;android</title>
<polygon fill="limegreen" stroke="#4c0000" points="175.5,-518 20.5,-518 20.5,-494 175.5,-494 175.5,-488 193.5,-506 175.5,-524 175.5,-518"/>
<polygon fill="none" stroke="#4c0000" points="179.5,-522 16.5,-522 16.5,-490 179.5,-490 179.5,-484 197.5,-506 179.5,-528 179.5,-522"/>
<polygon fill="none" stroke="#4c0000" points="183.5,-526 12.5,-526 12.5,-486 183.5,-486 183.5,-480 201.5,-506 183.5,-532 183.5,-526"/>
<text text-anchor="middle" x="107" y="-502.3" font-family="Courier New" font-size="14.00">:sample&#45;app&#45;android</text>
</g>
<!-- :sample&#45;lib&#45;android -->
<g id="node2" class="node">
<title>:sample&#45;lib&#45;android</title>
<defs>
<linearGradient id="l_0" gradientUnits="userSpaceOnUse" x1="107" y1="-168" x2="107" y2="-204" >
<stop offset="0" style="stop-color:crimson;stop-opacity:1.;"/>
<stop offset="1" style="stop-color:#008b8b;stop-opacity:1.;"/>
</linearGradient>
</defs>
<polygon fill="url(#l_0)" stroke="#4c0000" points="193.5,-204 20.5,-204 20.5,-168 193.5,-168 193.5,-204"/>
<polygon fill="none" stroke="#4c0000" points="197.5,-208 16.5,-208 16.5,-164 197.5,-164 197.5,-208"/>
<polygon fill="none" stroke="#4c0000" points="201.5,-212 12.5,-212 12.5,-160 201.5,-160 201.5,-212"/>
<text text-anchor="middle" x="107" y="-182.3" font-family="Courier New" font-size="14.00">:sample&#45;lib&#45;android</text>
</g>
<!-- :sample&#45;app&#45;android&#45;&gt;:sample&#45;lib&#45;android -->
<g id="edge1" class="edge">
<title>:sample&#45;app&#45;android&#45;&gt;:sample&#45;lib&#45;android</title>
<path fill="none" stroke="red" stroke-dasharray="1,5" d="M95.39,-479.67C84.03,-453.4 67.52,-410.79 61,-372 52.22,-319.72 72.43,-260.45 88.79,-223.39"/>
<polygon fill="none" stroke="red" points="88.93,-223.09 87.8,-215.96 93.93,-212.18 95.07,-219.3 88.93,-223.09"/>
</g>
<!-- :sample&#45;lib&#45;kotlin&#45;mp -->
<g id="node4" class="node">
<title>:sample&#45;lib&#45;kotlin&#45;mp</title>
<polygon fill="mediumslateblue" stroke="#4c0000" points="268,-364 78,-364 78,-328 268,-328 268,-364"/>
<polygon fill="none" stroke="#4c0000" points="272,-368 74,-368 74,-324 272,-324 272,-368"/>
<polygon fill="none" stroke="#4c0000" points="276,-372 70,-372 70,-320 276,-320 276,-372"/>
<text text-anchor="middle" x="173" y="-342.3" font-family="Courier New" font-size="14.00" fill="white">:sample&#45;lib&#45;kotlin&#45;mp</text>
</g>
<!-- :sample&#45;app&#45;android&#45;&gt;:sample&#45;lib&#45;kotlin&#45;mp -->
<g id="edge2" class="edge">
<title>:sample&#45;app&#45;android&#45;&gt;:sample&#45;lib&#45;kotlin&#45;mp</title>
<path fill="none" stroke="red" stroke-dasharray="1,5" d="M117.46,-479.96C128.34,-453.92 145.47,-412.9 157.84,-383.3"/>
<polygon fill="none" stroke="red" points="157.86,-383.25 156.48,-376.17 162.48,-372.18 163.86,-379.26 157.86,-383.25"/>
</g>
<!-- :sample&#45;lib&#45;kotlin&#45;jvm -->
<g id="node3" class="node">
<title>:sample&#45;lib&#45;kotlin&#45;jvm</title>
<polygon fill="mediumorchid" stroke="#4c0000" points="206,-44 8,-44 8,-8 206,-8 206,-44"/>
<polygon fill="none" stroke="#4c0000" points="210,-48 4,-48 4,-4 210,-4 210,-48"/>
<polygon fill="none" stroke="#4c0000" points="214,-52 0,-52 0,0 214,0 214,-52"/>
<text text-anchor="middle" x="107" y="-22.3" font-family="Courier New" font-size="14.00">:sample&#45;lib&#45;kotlin&#45;jvm</text>
</g>
<!-- :sample&#45;lib&#45;android&#45;&gt;:sample&#45;lib&#45;kotlin&#45;jvm -->
<g id="edge3" class="edge">
<title>:sample&#45;lib&#45;android&#45;&gt;:sample&#45;lib&#45;kotlin&#45;jvm</title>
<path fill="none" stroke="red" stroke-dasharray="1,5" d="M107,-159.96C107,-134.27 107,-93.98 107,-64.48"/>
<polygon fill="none" stroke="red" points="107,-64.18 103,-58.18 107,-52.18 111,-58.18 107,-64.18"/>
</g>
<!-- :sample&#45;lib&#45;kotlin&#45;mp&#45;&gt;:sample&#45;lib&#45;android -->
<g id="edge4" class="edge">
<title>:sample&#45;lib&#45;kotlin&#45;mp&#45;&gt;:sample&#45;lib&#45;android</title>
<path fill="none" stroke="red" d="M162.54,-319.96C151.66,-293.92 134.53,-252.9 122.16,-223.3"/>
<polygon fill="none" stroke="red" points="122.14,-223.25 116.14,-219.26 117.52,-212.18 123.52,-216.17 122.14,-223.25"/>
</g>
</g>
</svg>
