<?xml version="1.0" encoding="UTF-8" standalone="no"?>
<!DOCTYPE svg PUBLIC "-//W3C//DTD SVG 1.1//EN"
 "http://www.w3.org/Graphics/SVG/1.1/DTD/svg11.dtd">
<!-- Generated by graphviz version 2.43.0 (0)
 -->
<!-- Title: %3 Pages: 1 -->
<svg width="455pt" height="661pt"
 viewBox="0.00 0.00 455.00 661.00" xmlns="http://www.w3.org/2000/svg" xmlns:xlink="http://www.w3.org/1999/xlink">
<g id="graph0" class="graph" transform="scale(1.39 1.39) rotate(0) translate(4 472)">
<title>%3</title>
<polygon fill="white" stroke="transparent" points="-4,4 -4,-472 323.5,-472 323.5,4 -4,4"/>
<!-- :sample&#45;app&#45;android -->
<g id="node1" class="node">
<title>:sample&#45;app&#45;android</title>
<polygon fill="limegreen" stroke="transparent" points="317,-468 155,-468 155,-432 317,-432 317,-468"/>
<text text-anchor="middle" x="236" y="-446.3" font-family="Times,serif" font-size="14.00">:sample&#45;app&#45;android</text>
</g>
<!-- :sample&#45;lib&#45;kotlin&#45;mp -->
<g id="node5" class="node">
<title>:sample&#45;lib&#45;kotlin&#45;mp</title>
<polygon fill="mediumslateblue" stroke="black" stroke-width="3" points="319.5,-324 152.5,-324 152.5,-288 319.5,-288 319.5,-324"/>
<text text-anchor="middle" x="236" y="-302.3" font-family="Times,serif" font-size="14.00">:sample&#45;lib&#45;kotlin&#45;mp</text>
</g>
<!-- :sample&#45;app&#45;android&#45;&gt;:sample&#45;lib&#45;kotlin&#45;mp -->
<g id="edge1" class="edge">
<title>:sample&#45;app&#45;android&#45;&gt;:sample&#45;lib&#45;kotlin&#45;mp</title>
<path fill="none" stroke="black" stroke-dasharray="1,5" d="M236,-431.87C236,-407.67 236,-363.21 236,-334.39"/>
<polygon fill="black" stroke="black" points="239.5,-334.19 236,-324.19 232.5,-334.19 239.5,-334.19"/>
</g>
<!-- :sample&#45;lib&#45;android -->
<g id="node2" class="node">
<title>:sample&#45;lib&#45;android</title>
<polygon fill="lightgreen" stroke="transparent" points="154,-180 0,-180 0,-144 154,-144 154,-180"/>
<text text-anchor="middle" x="77" y="-158.3" font-family="Times,serif" font-size="14.00">:sample&#45;lib&#45;android</text>
</g>
<!-- :sample&#45;lib&#45;kotlin&#45;jvm -->
<g id="node4" class="node">
<title>:sample&#45;lib&#45;kotlin&#45;jvm</title>
<polygon fill="mediumorchid" stroke="transparent" points="287,-36 117,-36 117,0 287,0 287,-36"/>
<text text-anchor="middle" x="202" y="-14.3" font-family="Times,serif" font-size="14.00">:sample&#45;lib&#45;kotlin&#45;jvm</text>
</g>
<!-- :sample&#45;lib&#45;android&#45;&gt;:sample&#45;lib&#45;kotlin&#45;jvm -->
<g id="edge2" class="edge">
<title>:sample&#45;lib&#45;android&#45;&gt;:sample&#45;lib&#45;kotlin&#45;jvm</title>
<path fill="none" stroke="black" stroke-dasharray="1,5" d="M92.08,-143.87C114.04,-118.92 154.95,-72.45 180.19,-43.77"/>
<polygon fill="black" stroke="black" points="182.89,-46.01 186.87,-36.19 177.63,-41.38 182.89,-46.01"/>
</g>
<!-- :sample&#45;lib&#45;java -->
<g id="node3" class="node">
<title>:sample&#45;lib&#45;java</title>
<polygon fill="orange" stroke="transparent" points="300,-180 172,-180 172,-144 300,-144 300,-180"/>
<text text-anchor="middle" x="236" y="-158.3" font-family="Times,serif" font-size="14.00">:sample&#45;lib&#45;java</text>
</g>
<!-- :sample&#45;lib&#45;kotlin&#45;mp&#45;&gt;:sample&#45;lib&#45;android -->
<g id="edge3" class="edge">
<title>:sample&#45;lib&#45;kotlin&#45;mp&#45;&gt;:sample&#45;lib&#45;android</title>
<path fill="none" stroke="black" d="M216.82,-287.87C188.65,-262.71 135.96,-215.65 103.92,-187.04"/>
<polygon fill="black" stroke="black" points="106.04,-184.24 96.25,-180.19 101.37,-189.46 106.04,-184.24"/>
</g>
<!-- :sample&#45;lib&#45;kotlin&#45;mp&#45;&gt;:sample&#45;lib&#45;java -->
<g id="edge4" class="edge">
<title>:sample&#45;lib&#45;kotlin&#45;mp&#45;&gt;:sample&#45;lib&#45;java</title>
<path fill="none" stroke="orange" stroke-width="2" d="M236,-287.87C236,-263.67 236,-219.21 236,-190.39"/>
<polygon fill="orange" stroke="orange" stroke-width="2" points="239.5,-190.19 236,-180.19 232.5,-190.19 239.5,-190.19"/>
</g>
<!-- :sample&#45;lib&#45;kotlin&#45;mp&#45;&gt;:sample&#45;lib&#45;kotlin&#45;jvm -->
<g id="edge5" class="edge">
<title>:sample&#45;lib&#45;kotlin&#45;mp&#45;&gt;:sample&#45;lib&#45;kotlin&#45;jvm</title>
<path fill="none" stroke="black" d="M253.39,-287.95C280.77,-258.93 328.89,-197.83 309,-144 293.65,-102.48 257.68,-65.42 231.67,-42.64"/>
<polygon fill="black" stroke="black" points="233.83,-39.88 223.95,-36.04 229.28,-45.2 233.83,-39.88"/>
</g>
</g>
</svg>
