<?xml version="1.0" encoding="UTF-8" standalone="no"?>
<!DOCTYPE svg PUBLIC "-//W3C//DTD SVG 1.1//EN"
 "http://www.w3.org/Graphics/SVG/1.1/DTD/svg11.dtd">
<!-- Generated by graphviz version 2.43.0 (0)
 -->
<!-- Title: %3 Pages: 1 -->
<svg width="628pt" height="207pt"
 viewBox="0.00 0.00 628.00 207.00" xmlns="http://www.w3.org/2000/svg" xmlns:xlink="http://www.w3.org/1999/xlink">
<g id="graph0" class="graph" transform="scale(1 1) rotate(0) translate(4 203)">
<title>%3</title>
<polygon fill="MidnightBlue" stroke="transparent" points="-4,4 -4,-203 624,-203 624,4 -4,4"/>
<!-- modules -->
<g id="node1" class="node">
<title>modules</title>
<polygon fill="#4c0000" stroke="#4c0000" points="318,-191 8,-191 8,-8 318,-8 318,-191"/>
<polygon fill="none" stroke="#4c0000" points="322,-195 4,-195 4,-4 322,-4 322,-195"/>
<polygon fill="none" stroke="#4c0000" points="326,-199 0,-199 0,0 326,0 326,-199"/>
<polygon fill="none" stroke="white" points="16,-161.5 16,-186.5 310,-186.5 310,-161.5 16,-161.5"/>
<text text-anchor="start" x="113" y="-171.3" font-family="Courier New" font-weight="bold" font-size="14.00" fill="white">Module Types</text>
<polygon fill="none" stroke="white" points="16,-136.5 16,-161.5 192,-161.5 192,-136.5 16,-136.5"/>
<text text-anchor="start" x="58.5" y="-145.3" font-family="Courier New" font-size="14.00" fill="white">Android App</text>
<polygon fill="limegreen" stroke="transparent" points="192,-136.5 192,-161.5 310,-161.5 310,-136.5 192,-136.5"/>
<polygon fill="none" stroke="white" points="192,-136.5 192,-161.5 310,-161.5 310,-136.5 192,-136.5"/>
<text text-anchor="start" x="197" y="-145.3" font-family="Courier New" font-size="14.00" fill="white">&lt;module&#45;name&gt;</text>
<polygon fill="none" stroke="white" points="16,-111.5 16,-136.5 192,-136.5 192,-111.5 16,-111.5"/>
<text text-anchor="start" x="21" y="-120.3" font-family="Courier New" font-size="14.00" fill="white">Kotlin Multiplatform</text>
<polygon fill="mediumslateblue" stroke="transparent" points="192,-111.5 192,-136.5 310,-136.5 310,-111.5 192,-111.5"/>
<polygon fill="none" stroke="white" points="192,-111.5 192,-136.5 310,-136.5 310,-111.5 192,-111.5"/>
<text text-anchor="start" x="197" y="-120.3" font-family="Courier New" font-size="14.00" fill="red">&lt;module&#45;name&gt;</text>
<polygon fill="none" stroke="white" points="16,-86.5 16,-111.5 192,-111.5 192,-86.5 16,-86.5"/>
<text text-anchor="start" x="42" y="-95.3" font-family="Courier New" font-size="14.00" fill="white">Android Library</text>
<defs>
<linearGradient id="l_0" gradientUnits="userSpaceOnUse" x1="192" y1="-99" x2="310" y2="-99" >
<stop offset="0" style="stop-color:crimson;stop-opacity:1.;"/>
<stop offset="1" style="stop-color:#008b8b;stop-opacity:1.;"/>
</linearGradient>
</defs>
<polygon fill="url(#l_0)" stroke="transparent" points="192,-86.5 192,-111.5 310,-111.5 310,-86.5 192,-86.5"/>
<polygon fill="none" stroke="white" points="192,-86.5 192,-111.5 310,-111.5 310,-86.5 192,-86.5"/>
<text text-anchor="start" x="197" y="-95.3" font-family="Courier New" font-size="14.00" fill="white">&lt;module&#45;name&gt;</text>
<polygon fill="none" stroke="white" points="16,-61.5 16,-86.5 192,-86.5 192,-61.5 16,-61.5"/>
<text text-anchor="start" x="62.5" y="-70.3" font-family="Courier New" font-size="14.00" fill="white">Kotlin JVM</text>
<polygon fill="mediumorchid" stroke="transparent" points="192,-61.5 192,-86.5 310,-86.5 310,-61.5 192,-61.5"/>
<polygon fill="none" stroke="white" points="192,-61.5 192,-86.5 310,-86.5 310,-61.5 192,-61.5"/>
<text text-anchor="start" x="197" y="-70.3" font-family="Courier New" font-size="14.00" fill="white">&lt;module&#45;name&gt;</text>
<polygon fill="none" stroke="white" points="16,-36.5 16,-61.5 192,-61.5 192,-36.5 16,-36.5"/>
<text text-anchor="start" x="87" y="-45.3" font-family="Courier New" font-size="14.00" fill="white">Java</text>
<polygon fill="orange" stroke="transparent" points="192,-36.5 192,-61.5 310,-61.5 310,-36.5 192,-36.5"/>
<polygon fill="none" stroke="white" points="192,-36.5 192,-61.5 310,-61.5 310,-36.5 192,-36.5"/>
<text text-anchor="start" x="197" y="-45.3" font-family="Courier New" font-size="14.00" fill="white">&lt;module&#45;name&gt;</text>
<polygon fill="none" stroke="white" points="16,-11.5 16,-36.5 192,-36.5 192,-11.5 16,-11.5"/>
<text text-anchor="start" x="83" y="-20.3" font-family="Courier New" font-size="14.00" fill="white">Other</text>
<polygon fill="#444444" stroke="transparent" points="192,-11.5 192,-36.5 310,-36.5 310,-11.5 192,-11.5"/>
<polygon fill="none" stroke="white" points="192,-11.5 192,-36.5 310,-36.5 310,-11.5 192,-11.5"/>
<text text-anchor="start" x="197" y="-20.3" font-family="Courier New" font-size="14.00" fill="white">&lt;module&#45;name&gt;</text>
</g>
<!-- links -->
<g id="node2" class="node">
<title>links</title>
<polygon fill="#4c0000" stroke="#4c0000" points="612,-153.5 352,-153.5 352,-45.5 612,-45.5 612,-153.5"/>
<polygon fill="none" stroke="#4c0000" points="616,-157.5 348,-157.5 348,-41.5 616,-41.5 616,-157.5"/>
<polygon fill="none" stroke="#4c0000" points="620,-161.5 344,-161.5 344,-37.5 620,-37.5 620,-161.5"/>
<polygon fill="none" stroke="white" points="360,-124.5 360,-149.5 604,-149.5 604,-124.5 360,-124.5"/>
<text text-anchor="start" x="440.5" y="-134.3" font-family="Courier New" font-weight="bold" font-size="14.00" fill="white">Link Types</text>
<polygon fill="none" stroke="white" points="360,-99.5 360,-124.5 544,-124.5 544,-99.5 360,-99.5"/>
<text text-anchor="start" x="365" y="-108.3" font-family="Courier New" font-size="14.00" fill="white">jvmMainImplementation</text>
<polygon fill="orange" stroke="transparent" points="544,-99.5 544,-124.5 604,-124.5 604,-99.5 544,-99.5"/>
<polygon fill="none" stroke="white" points="544,-99.5 544,-124.5 604,-124.5 604,-99.5 544,-99.5"/>
<text text-anchor="start" x="557" y="-108.3" font-family="Courier New" font-size="14.00" fill="white">Bold</text>
<polygon fill="none" stroke="white" points="360,-74.5 360,-99.5 544,-99.5 544,-74.5 360,-74.5"/>
<text text-anchor="start" x="439.5" y="-83.3" font-family="Courier New" font-size="14.00" fill="white">api</text>
<polygon fill="none" stroke="white" points="544,-74.5 544,-99.5 604,-99.5 604,-74.5 544,-74.5"/>
<text text-anchor="start" x="553" y="-83.3" font-family="Courier New" font-size="14.00" fill="white">Solid</text>
<polygon fill="none" stroke="white" points="360,-49.5 360,-74.5 544,-74.5 544,-49.5 360,-49.5"/>
<text text-anchor="start" x="394" y="-58.3" font-family="Courier New" font-size="14.00" fill="white">implementation</text>
<polygon fill="none" stroke="white" points="544,-49.5 544,-74.5 604,-74.5 604,-49.5 544,-49.5"/>
<text text-anchor="start" x="549" y="-58.3" font-family="Courier New" font-size="14.00" fill="white">Dotted</text>
</g>
</g>
</svg>
