<?xml version="1.0" encoding="UTF-8" standalone="no"?>
<!DOCTYPE svg PUBLIC "-//W3C//DTD SVG 1.1//EN"
 "http://www.w3.org/Graphics/SVG/1.1/DTD/svg11.dtd">
<!-- Generated by graphviz version 2.43.0 (0)
 -->
<!-- Title: %3 Pages: 1 -->
<svg width="524pt" height="585pt"
 viewBox="0.00 0.00 523.50 585.00" xmlns="http://www.w3.org/2000/svg" xmlns:xlink="http://www.w3.org/1999/xlink">
<g id="graph0" class="graph" transform="scale(1 1) rotate(0) translate(4 581)">
<title>%3</title>
<polygon fill="MidnightBlue" stroke="transparent" points="-4,4 -4,-581 519.5,-581 519.5,4 -4,4"/>
<!-- :sample&#45;app&#45;android -->
<g id="node1" class="node">
<title>:sample&#45;app&#45;android</title>
<polygon fill="limegreen" stroke="#4c0000" points="286,-563 131,-563 131,-539 286,-539 286,-533 304,-551 286,-569 286,-563"/>
<polygon fill="none" stroke="#4c0000" points="290,-567 127,-567 127,-535 290,-535 290,-529 308,-551 290,-573 290,-567"/>
<polygon fill="none" stroke="#4c0000" points="294,-571 123,-571 123,-531 294,-531 294,-525 312,-551 294,-577 294,-571"/>
<text text-anchor="middle" x="217.5" y="-547.3" font-family="Courier New" font-size="14.00">:sample&#45;app&#45;android</text>
</g>
<!-- :sample&#45;lib&#45;kotlin&#45;mp -->
<g id="node5" class="node">
<title>:sample&#45;lib&#45;kotlin&#45;mp</title>
<polygon fill="mediumslateblue" stroke="#4c0000" points="312.5,-394 122.5,-394 122.5,-358 312.5,-358 312.5,-394"/>
<polygon fill="none" stroke="#4c0000" points="316.5,-398 118.5,-398 118.5,-354 316.5,-354 316.5,-398"/>
<polygon fill="none" stroke="#4c0000" points="320.5,-402 114.5,-402 114.5,-350 320.5,-350 320.5,-402"/>
<text text-anchor="middle" x="217.5" y="-372.3" font-family="Courier New" font-size="14.00" fill="white">:sample&#45;lib&#45;kotlin&#45;mp</text>
</g>
<!-- :sample&#45;app&#45;android&#45;&gt;:sample&#45;lib&#45;kotlin&#45;mp -->
<g id="edge1" class="edge">
<title>:sample&#45;app&#45;android&#45;&gt;:sample&#45;lib&#45;kotlin&#45;mp</title>
<path fill="none" stroke="red" stroke-dasharray="1,5" d="M217.5,-512.83C217.5,-483.74 217.5,-443.45 217.5,-414.32"/>
<polygon fill="none" stroke="red" points="217.5,-512.84 221.5,-518.84 217.5,-524.84 213.5,-518.84 217.5,-512.84"/>
<polygon fill="none" stroke="red" points="217.5,-414.19 213.5,-408.19 217.5,-402.19 221.5,-408.19 217.5,-414.19"/>
<text text-anchor="middle" x="274" y="-459.8" font-family="Times,serif" font-size="14.00" fill="white">implementation</text>
</g>
<!-- :sample&#45;lib&#45;android -->
<g id="node2" class="node">
<title>:sample&#45;lib&#45;android</title>
<defs>
<linearGradient id="l_0" gradientUnits="userSpaceOnUse" x1="94.5" y1="-183" x2="94.5" y2="-219" >
<stop offset="0" style="stop-color:crimson;stop-opacity:1.;"/>
<stop offset="1" style="stop-color:#008b8b;stop-opacity:1.;"/>
</linearGradient>
</defs>
<polygon fill="url(#l_0)" stroke="#4c0000" points="181,-219 8,-219 8,-183 181,-183 181,-219"/>
<polygon fill="none" stroke="#4c0000" points="185,-223 4,-223 4,-179 185,-179 185,-223"/>
<polygon fill="none" stroke="#4c0000" points="189,-227 0,-227 0,-175 189,-175 189,-227"/>
<text text-anchor="middle" x="94.5" y="-197.3" font-family="Courier New" font-size="14.00">:sample&#45;lib&#45;android</text>
</g>
<!-- :sample&#45;lib&#45;kotlin&#45;jvm -->
<g id="node4" class="node">
<title>:sample&#45;lib&#45;kotlin&#45;jvm</title>
<polygon fill="mediumorchid" stroke="#4c0000" points="507.5,-44 309.5,-44 309.5,-8 507.5,-8 507.5,-44"/>
<polygon fill="none" stroke="#4c0000" points="511.5,-48 305.5,-48 305.5,-4 511.5,-4 511.5,-48"/>
<polygon fill="none" stroke="#4c0000" points="515.5,-52 301.5,-52 301.5,0 515.5,0 515.5,-52"/>
<text text-anchor="middle" x="408.5" y="-22.3" font-family="Courier New" font-size="14.00">:sample&#45;lib&#45;kotlin&#45;jvm</text>
</g>
<!-- :sample&#45;lib&#45;android&#45;&gt;:sample&#45;lib&#45;kotlin&#45;jvm -->
<g id="edge2" class="edge">
<title>:sample&#45;lib&#45;android&#45;&gt;:sample&#45;lib&#45;kotlin&#45;jvm</title>
<path fill="none" stroke="red" stroke-dasharray="1,5" d="M150.7,-169.04C207.71,-137.63 295.46,-89.28 352.43,-57.89"/>
<polygon fill="none" stroke="red" points="150.67,-169.05 147.34,-175.45 140.16,-174.84 143.48,-168.45 150.67,-169.05"/>
<polygon fill="none" stroke="red" points="352.53,-57.84 355.86,-51.44 363.04,-52.05 359.72,-58.44 352.53,-57.84"/>
<text text-anchor="middle" x="318" y="-109.8" font-family="Times,serif" font-size="14.00" fill="white">implementation</text>
</g>
<!-- :sample&#45;lib&#45;java -->
<g id="node3" class="node">
<title>:sample&#45;lib&#45;java</title>
<polygon fill="orange" stroke="#4c0000" points="364,-219 215,-219 215,-183 364,-183 364,-219"/>
<polygon fill="none" stroke="#4c0000" points="368,-223 211,-223 211,-179 368,-179 368,-223"/>
<polygon fill="none" stroke="#4c0000" points="372,-227 207,-227 207,-175 372,-175 372,-227"/>
<text text-anchor="middle" x="289.5" y="-197.3" font-family="Courier New" font-size="14.00">:sample&#45;lib&#45;java</text>
</g>
<!-- :sample&#45;lib&#45;kotlin&#45;mp&#45;&gt;:sample&#45;lib&#45;android -->
<g id="edge3" class="edge">
<title>:sample&#45;lib&#45;kotlin&#45;mp&#45;&gt;:sample&#45;lib&#45;android</title>
<path fill="none" stroke="red" d="M199.61,-349.84C178.48,-320.12 143.19,-270.48 119.39,-237.01"/>
<polygon fill="none" stroke="red" points="119.36,-236.97 112.62,-234.39 112.41,-227.19 119.14,-229.76 119.36,-236.97"/>
<text text-anchor="middle" x="171.5" y="-284.8" font-family="Times,serif" font-size="14.00" fill="white">api</text>
</g>
<!-- :sample&#45;lib&#45;kotlin&#45;mp&#45;&gt;:sample&#45;lib&#45;java -->
<g id="edge4" class="edge">
<title>:sample&#45;lib&#45;kotlin&#45;mp&#45;&gt;:sample&#45;lib&#45;java</title>
<path fill="none" stroke="orange" stroke-width="2" d="M213.06,-349.75C210.73,-330.28 209.91,-303.05 218.5,-281 225.32,-263.48 237.98,-247.38 250.74,-234.35"/>
<polygon fill="orange" stroke="orange" stroke-width="2" points="251.06,-234.03 261.36,-230.26 254.64,-230.54 258.22,-227.04 258.22,-227.04 258.22,-227.04 254.64,-230.54 255.07,-223.82 251.06,-234.03 251.06,-234.03"/>
<text text-anchor="middle" x="306.5" y="-284.8" font-family="Times,serif" font-size="14.00" fill="white">jvmMainImplementation</text>
</g>
<!-- :sample&#45;lib&#45;kotlin&#45;mp&#45;&gt;:sample&#45;lib&#45;kotlin&#45;jvm -->
<g id="edge5" class="edge">
<title>:sample&#45;lib&#45;kotlin&#45;mp&#45;&gt;:sample&#45;lib&#45;kotlin&#45;jvm</title>
<path fill="none" stroke="red" d="M320.78,-350.7C349.19,-338.91 376.98,-321.53 394.5,-296 442.6,-225.92 429.46,-119.76 417.79,-64.07"/>
<polygon fill="none" stroke="red" points="417.78,-64.06 412.58,-59.06 415.19,-52.34 420.39,-57.34 417.78,-64.06"/>
<text text-anchor="middle" x="438.5" y="-197.3" font-family="Times,serif" font-size="14.00" fill="white">api</text>
</g>
</g>
</svg>
