<?xml version="1.0" encoding="UTF-8" standalone="no"?>
<!DOCTYPE svg PUBLIC "-//W3C//DTD SVG 1.1//EN"
 "http://www.w3.org/Graphics/SVG/1.1/DTD/svg11.dtd">
<!-- Generated by graphviz version 2.43.0 (0)
 -->
<!-- Title: %3 Pages: 1 -->
<svg width="401pt" height="540pt"
 viewBox="0.00 0.00 400.50 540.00" xmlns="http://www.w3.org/2000/svg" xmlns:xlink="http://www.w3.org/1999/xlink">
<g id="graph0" class="graph" transform="scale(1 1) rotate(0) translate(4 536)">
<title>%3</title>
<polygon fill="MidnightBlue" stroke="transparent" points="-4,4 -4,-536 396.5,-536 396.5,4 -4,4"/>
<!-- :sample&#45;app&#45;android -->
<g id="node1" class="node">
<title>:sample&#45;app&#45;android</title>
<polygon fill="limegreen" stroke="#4c0000" points="358,-518 203,-518 203,-494 358,-494 358,-488 376,-506 358,-524 358,-518"/>
<polygon fill="none" stroke="#4c0000" points="362,-522 199,-522 199,-490 362,-490 362,-484 380,-506 362,-528 362,-522"/>
<polygon fill="none" stroke="#4c0000" points="366,-526 195,-526 195,-486 366,-486 366,-480 384,-506 366,-532 366,-526"/>
<text text-anchor="middle" x="289.5" y="-502.3" font-family="Courier New" font-size="14.00">:sample&#45;app&#45;android</text>
</g>
<!-- :sample&#45;lib&#45;kotlin&#45;mp -->
<g id="node5" class="node">
<title>:sample&#45;lib&#45;kotlin&#45;mp</title>
<polygon fill="mediumslateblue" stroke="#4c0000" points="384.5,-364 194.5,-364 194.5,-328 384.5,-328 384.5,-364"/>
<polygon fill="none" stroke="#4c0000" points="388.5,-368 190.5,-368 190.5,-324 388.5,-324 388.5,-368"/>
<polygon fill="none" stroke="#4c0000" points="392.5,-372 186.5,-372 186.5,-320 392.5,-320 392.5,-372"/>
<text text-anchor="middle" x="289.5" y="-342.3" font-family="Courier New" font-size="14.00" fill="white">:sample&#45;lib&#45;kotlin&#45;mp</text>
</g>
<!-- :sample&#45;app&#45;android&#45;&gt;:sample&#45;lib&#45;kotlin&#45;mp -->
<g id="edge1" class="edge">
<title>:sample&#45;app&#45;android&#45;&gt;:sample&#45;lib&#45;kotlin&#45;mp</title>
<path fill="none" stroke="red" stroke-dasharray="1,5" d="M289.5,-479.96C289.5,-454.27 289.5,-413.98 289.5,-384.48"/>
<polygon fill="none" stroke="red" points="289.5,-384.18 285.5,-378.18 289.5,-372.18 293.5,-378.18 289.5,-384.18"/>
</g>
<!-- :sample&#45;lib&#45;android -->
<g id="node2" class="node">
<title>:sample&#45;lib&#45;android</title>
<defs>
<linearGradient id="l_0" gradientUnits="userSpaceOnUse" x1="94.5" y1="-168" x2="94.5" y2="-204" >
<stop offset="0" style="stop-color:crimson;stop-opacity:1.;"/>
<stop offset="1" style="stop-color:#008b8b;stop-opacity:1.;"/>
</linearGradient>
</defs>
<polygon fill="url(#l_0)" stroke="#4c0000" points="181,-204 8,-204 8,-168 181,-168 181,-204"/>
<polygon fill="none" stroke="#4c0000" points="185,-208 4,-208 4,-164 185,-164 185,-208"/>
<polygon fill="none" stroke="#4c0000" points="189,-212 0,-212 0,-160 189,-160 189,-212"/>
<text text-anchor="middle" x="94.5" y="-182.3" font-family="Courier New" font-size="14.00">:sample&#45;lib&#45;android</text>
</g>
<!-- :sample&#45;lib&#45;kotlin&#45;jvm -->
<g id="node4" class="node">
<title>:sample&#45;lib&#45;kotlin&#45;jvm</title>
<polygon fill="mediumorchid" stroke="#4c0000" points="346.5,-44 148.5,-44 148.5,-8 346.5,-8 346.5,-44"/>
<polygon fill="none" stroke="#4c0000" points="350.5,-48 144.5,-48 144.5,-4 350.5,-4 350.5,-48"/>
<polygon fill="none" stroke="#4c0000" points="354.5,-52 140.5,-52 140.5,0 354.5,0 354.5,-52"/>
<text text-anchor="middle" x="247.5" y="-22.3" font-family="Courier New" font-size="14.00">:sample&#45;lib&#45;kotlin&#45;jvm</text>
</g>
<!-- :sample&#45;lib&#45;android&#45;&gt;:sample&#45;lib&#45;kotlin&#45;jvm -->
<g id="edge2" class="edge">
<title>:sample&#45;lib&#45;android&#45;&gt;:sample&#45;lib&#45;kotlin&#45;jvm</title>
<path fill="none" stroke="red" stroke-dasharray="1,5" d="M118.74,-159.96C144.63,-133.23 185.81,-90.71 214.61,-60.97"/>
<polygon fill="none" stroke="red" points="214.77,-60.8 216.07,-53.71 223.12,-52.18 221.82,-59.27 214.77,-60.8"/>
</g>
<!-- :sample&#45;lib&#45;java -->
<g id="node3" class="node">
<title>:sample&#45;lib&#45;java</title>
<polygon fill="orange" stroke="#4c0000" points="364,-204 215,-204 215,-168 364,-168 364,-204"/>
<polygon fill="none" stroke="#4c0000" points="368,-208 211,-208 211,-164 368,-164 368,-208"/>
<polygon fill="none" stroke="#4c0000" points="372,-212 207,-212 207,-160 372,-160 372,-212"/>
<text text-anchor="middle" x="289.5" y="-182.3" font-family="Courier New" font-size="14.00">:sample&#45;lib&#45;java</text>
</g>
<!-- :sample&#45;lib&#45;kotlin&#45;mp&#45;&gt;:sample&#45;lib&#45;android -->
<g id="edge3" class="edge">
<title>:sample&#45;lib&#45;kotlin&#45;mp&#45;&gt;:sample&#45;lib&#45;android</title>
<path fill="none" stroke="red" d="M258.6,-319.96C225.18,-292.89 171.77,-249.6 135.01,-219.82"/>
<polygon fill="none" stroke="red" points="134.9,-219.73 127.72,-219.06 125.58,-212.18 132.76,-212.85 134.9,-219.73"/>
</g>
<!-- :sample&#45;lib&#45;kotlin&#45;mp&#45;&gt;:sample&#45;lib&#45;java -->
<g id="edge4" class="edge">
<title>:sample&#45;lib&#45;kotlin&#45;mp&#45;&gt;:sample&#45;lib&#45;java</title>
<path fill="none" stroke="orange" stroke-width="2" d="M289.5,-319.96C289.5,-294.27 289.5,-253.98 289.5,-224.48"/>
<polygon fill="none" stroke="orange" stroke-width="2" points="289.5,-224.18 285.5,-218.18 289.5,-212.18 293.5,-218.18 289.5,-224.18"/>
</g>
<!-- :sample&#45;lib&#45;kotlin&#45;mp&#45;&gt;:sample&#45;lib&#45;kotlin&#45;jvm -->
<g id="edge5" class="edge">
<title>:sample&#45;lib&#45;kotlin&#45;mp&#45;&gt;:sample&#45;lib&#45;kotlin&#45;jvm</title>
<path fill="none" stroke="red" d="M317.35,-319.77C352.58,-284.61 405.91,-218.61 381.5,-160 364.16,-118.36 326.75,-83.06 295.85,-59.31"/>
<polygon fill="none" stroke="red" points="295.69,-59.19 288.49,-58.81 286.08,-52.01 293.28,-52.4 295.69,-59.19"/>
</g>
</g>
</svg>
