<?xml version="1.0" encoding="UTF-8" standalone="no"?>
<!DOCTYPE svg PUBLIC "-//W3C//DTD SVG 1.1//EN"
 "http://www.w3.org/Graphics/SVG/1.1/DTD/svg11.dtd">
<!-- Generated by graphviz version 2.43.0 (0)
 -->
<!-- Title: %3 Pages: 1 -->
<svg width="516pt" height="540pt"
 viewBox="0.00 0.00 515.50 540.00" xmlns="http://www.w3.org/2000/svg" xmlns:xlink="http://www.w3.org/1999/xlink">
<g id="graph0" class="graph" transform="scale(1 1) rotate(0) translate(4 536)">
<title>%3</title>
<polygon fill="MidnightBlue" stroke="transparent" points="-4,4 -4,-536 511.5,-536 511.5,4 -4,4"/>
<!-- :sample&#45;app&#45;android -->
<g id="node1" class="node">
<title>:sample&#45;app&#45;android</title>
<polygon fill="limegreen" stroke="#4c0000" points="358,-518 203,-518 203,-494 358,-494 358,-488 376,-506 358,-524 358,-518"/>
<polygon fill="none" stroke="#4c0000" points="362,-522 199,-522 199,-490 362,-490 362,-484 380,-506 362,-528 362,-522"/>
<polygon fill="none" stroke="#4c0000" points="366,-526 195,-526 195,-486 366,-486 366,-480 384,-506 366,-532 366,-526"/>
<text text-anchor="middle" x="289.5" y="-502.3" font-family="Courier New" font-size="14.00">:sample&#45;app&#45;android</text>
</g>
<!-- :sample&#45;lib&#45;kotlin&#45;mp -->
<g id="node5" class="node">
<title>:sample&#45;lib&#45;kotlin&#45;mp</title>
<polygon fill="mediumslateblue" stroke="#4c0000" points="384.5,-364 194.5,-364 194.5,-328 384.5,-328 384.5,-364"/>
<polygon fill="none" stroke="#4c0000" points="388.5,-368 190.5,-368 190.5,-324 388.5,-324 388.5,-368"/>
<polygon fill="none" stroke="#4c0000" points="392.5,-372 186.5,-372 186.5,-320 392.5,-320 392.5,-372"/>
<text text-anchor="middle" x="289.5" y="-342.3" font-family="Courier New" font-size="14.00" fill="white">:sample&#45;lib&#45;kotlin&#45;mp</text>
</g>
<!-- :sample&#45;app&#45;android&#45;&gt;:sample&#45;lib&#45;kotlin&#45;mp -->
<g id="edge1" class="edge">
<title>:sample&#45;app&#45;android&#45;&gt;:sample&#45;lib&#45;kotlin&#45;mp</title>
<path fill="none" stroke="red" stroke-dasharray="1,5" d="M289.5,-467.68C289.5,-442.6 289.5,-409.65 289.5,-384.52"/>
<polygon fill="none" stroke="red" points="289.5,-467.96 293.5,-473.96 289.5,-479.96 285.5,-473.96 289.5,-467.96"/>
<polygon fill="none" stroke="red" points="289.5,-384.18 285.5,-378.18 289.5,-372.18 293.5,-378.18 289.5,-384.18"/>
</g>
<!-- :sample&#45;lib&#45;android -->
<g id="node2" class="node">
<title>:sample&#45;lib&#45;android</title>
<defs>
<linearGradient id="l_0" gradientUnits="userSpaceOnUse" x1="94.5" y1="-168" x2="94.5" y2="-204" >
<stop offset="0" style="stop-color:crimson;stop-opacity:1.;"/>
<stop offset="1" style="stop-color:#008b8b;stop-opacity:1.;"/>
</linearGradient>
</defs>
<polygon fill="url(#l_0)" stroke="#4c0000" points="181,-204 8,-204 8,-168 181,-168 181,-204"/>
<polygon fill="none" stroke="#4c0000" points="185,-208 4,-208 4,-164 185,-164 185,-208"/>
<polygon fill="none" stroke="#4c0000" points="189,-212 0,-212 0,-160 189,-160 189,-212"/>
<text text-anchor="middle" x="94.5" y="-182.3" font-family="Courier New" font-size="14.00">:sample&#45;lib&#45;android</text>
</g>
<!-- :sample&#45;lib&#45;kotlin&#45;jvm -->
<g id="node4" class="node">
<title>:sample&#45;lib&#45;kotlin&#45;jvm</title>
<polygon fill="mediumorchid" stroke="#4c0000" points="499.5,-44 301.5,-44 301.5,-8 499.5,-8 499.5,-44"/>
<polygon fill="none" stroke="#4c0000" points="503.5,-48 297.5,-48 297.5,-4 503.5,-4 503.5,-48"/>
<polygon fill="none" stroke="#4c0000" points="507.5,-52 293.5,-52 293.5,0 507.5,0 507.5,-52"/>
<text text-anchor="middle" x="400.5" y="-22.3" font-family="Courier New" font-size="14.00">:sample&#45;lib&#45;kotlin&#45;jvm</text>
</g>
<!-- :sample&#45;lib&#45;android&#45;&gt;:sample&#45;lib&#45;kotlin&#45;jvm -->
<g id="edge2" class="edge">
<title>:sample&#45;lib&#45;android&#45;&gt;:sample&#45;lib&#45;kotlin&#45;jvm</title>
<path fill="none" stroke="red" stroke-dasharray="1,5" d="M153.77,-154.39C207.79,-126.5 287.17,-85.52 341.2,-57.62"/>
<polygon fill="none" stroke="red" points="153.65,-154.46 150.15,-160.77 142.99,-159.96 146.48,-153.66 153.65,-154.46"/>
<polygon fill="none" stroke="red" points="341.33,-57.55 344.82,-51.25 351.99,-52.05 348.49,-58.36 341.33,-57.55"/>
</g>
<!-- :sample&#45;lib&#45;java -->
<g id="node3" class="node">
<title>:sample&#45;lib&#45;java</title>
<polygon fill="orange" stroke="#4c0000" points="364,-204 215,-204 215,-168 364,-168 364,-204"/>
<polygon fill="none" stroke="#4c0000" points="368,-208 211,-208 211,-164 368,-164 368,-208"/>
<polygon fill="none" stroke="#4c0000" points="372,-212 207,-212 207,-160 372,-160 372,-212"/>
<text text-anchor="middle" x="289.5" y="-182.3" font-family="Courier New" font-size="14.00">:sample&#45;lib&#45;java</text>
</g>
<!-- :sample&#45;lib&#45;kotlin&#45;mp&#45;&gt;:sample&#45;lib&#45;android -->
<g id="edge3" class="edge">
<title>:sample&#45;lib&#45;kotlin&#45;mp&#45;&gt;:sample&#45;lib&#45;android</title>
<path fill="none" stroke="red" d="M258.6,-319.96C225.18,-292.89 171.77,-249.6 135.01,-219.82"/>
<polygon fill="none" stroke="red" points="134.9,-219.73 127.72,-219.06 125.58,-212.18 132.76,-212.85 134.9,-219.73"/>
</g>
<!-- :sample&#45;lib&#45;kotlin&#45;mp&#45;&gt;:sample&#45;lib&#45;java -->
<g id="edge4" class="edge">
<title>:sample&#45;lib&#45;kotlin&#45;mp&#45;&gt;:sample&#45;lib&#45;java</title>
<path fill="none" stroke="orange" stroke-width="2" d="M289.5,-319.96C289.5,-293.69 289.5,-252.17 289.5,-222.52"/>
<polygon fill="orange" stroke="orange" stroke-width="2" points="289.5,-222.18 294,-212.18 289.5,-217.18 289.5,-212.18 289.5,-212.18 289.5,-212.18 289.5,-217.18 285,-212.18 289.5,-222.18 289.5,-222.18"/>
</g>
<!-- :sample&#45;lib&#45;kotlin&#45;mp&#45;&gt;:sample&#45;lib&#45;kotlin&#45;jvm -->
<g id="edge5" class="edge">
<title>:sample&#45;lib&#45;kotlin&#45;mp&#45;&gt;:sample&#45;lib&#45;kotlin&#45;jvm</title>
<path fill="none" stroke="red" d="M312.56,-319.68C334.11,-294.41 365.18,-253.47 380.5,-212 398.55,-163.13 401.8,-102.41 401.73,-64.17"/>
<polygon fill="none" stroke="red" points="401.73,-64.11 397.66,-58.16 401.59,-52.12 405.66,-58.07 401.73,-64.11"/>
</g>
</g>
</svg>
