<?xml version="1.0" encoding="UTF-8" standalone="no"?>
<!DOCTYPE svg PUBLIC "-//W3C//DTD SVG 1.1//EN"
 "http://www.w3.org/Graphics/SVG/1.1/DTD/svg11.dtd">
<!-- Generated by graphviz version 2.43.0 (0)
 -->
<!-- Title: %3 Pages: 1 -->
<svg width="306pt" height="661pt"
 viewBox="0.00 0.00 220.50 476.00" xmlns="http://www.w3.org/2000/svg" xmlns:xlink="http://www.w3.org/1999/xlink">
<g id="graph0" class="graph" transform="scale(1.39 1.39) rotate(0) translate(4 472)">
<title>%3</title>
<polygon fill="white" stroke="transparent" points="-4,4 -4,-472 216.5,-472 216.5,4 -4,4"/>
<!-- abc_android -->
<g id="node1" class="node">
<title>abc_android</title>
<polygon fill="#55ff55" stroke="transparent" points="103,-180 0,-180 0,-144 103,-144 103,-180"/>
<text text-anchor="middle" x="51.5" y="-158.3" font-family="Times,serif" font-size="14.00">abc_android</text>
</g>
<!-- abc_kotlin_jvm -->
<g id="node3" class="node">
<title>abc_kotlin_jvm</title>
<polygon fill="#ca66ff" stroke="transparent" points="199.5,-36 77.5,-36 77.5,0 199.5,0 199.5,-36"/>
<text text-anchor="middle" x="138.5" y="-14.3" font-family="Times,serif" font-size="14.00">abc_kotlin_jvm</text>
</g>
<!-- abc_android&#45;&gt;abc_kotlin_jvm -->
<g id="edge1" class="edge">
<title>abc_android&#45;&gt;abc_kotlin_jvm</title>
<path fill="none" stroke="black" stroke-dasharray="1,5" d="M61.99,-143.87C77.08,-119.24 105.02,-73.64 122.64,-44.88"/>
<polygon fill="black" stroke="black" points="125.73,-46.54 127.97,-36.19 119.76,-42.89 125.73,-46.54"/>
</g>
<!-- abc_java -->
<g id="node2" class="node">
<title>abc_java</title>
<polygon fill="#ff8800" stroke="transparent" points="198,-180 121,-180 121,-144 198,-144 198,-180"/>
<text text-anchor="middle" x="159.5" y="-158.3" font-family="Times,serif" font-size="14.00">abc_java</text>
</g>
<!-- abc_kotlin_mp -->
<g id="node4" class="node">
<title>abc_kotlin_mp</title>
<polygon fill="#9d8df1" stroke="transparent" points="212.5,-324 94.5,-324 94.5,-288 212.5,-288 212.5,-324"/>
<text text-anchor="middle" x="153.5" y="-302.3" font-family="Times,serif" font-size="14.00">abc_kotlin_mp</text>
</g>
<!-- abc_kotlin_mp&#45;&gt;abc_android -->
<g id="edge2" class="edge">
<title>abc_kotlin_mp&#45;&gt;abc_android</title>
<path fill="none" stroke="black" d="M141.2,-287.87C123.43,-263.14 90.46,-217.24 69.83,-188.51"/>
<polygon fill="black" stroke="black" points="72.52,-186.27 63.85,-180.19 66.84,-190.35 72.52,-186.27"/>
</g>
<!-- abc_kotlin_mp&#45;&gt;abc_java -->
<g id="edge3" class="edge">
<title>abc_kotlin_mp&#45;&gt;abc_java</title>
<path fill="none" stroke="black" stroke-dasharray="1,5" d="M154.22,-287.87C155.25,-263.67 157.12,-219.21 158.34,-190.39"/>
<polygon fill="black" stroke="black" points="161.85,-190.33 158.77,-180.19 154.85,-190.03 161.85,-190.33"/>
</g>
<!-- abc_kotlin_mp&#45;&gt;abc_kotlin_jvm -->
<g id="edge4" class="edge">
<title>abc_kotlin_mp&#45;&gt;abc_kotlin_jvm</title>
<path fill="none" stroke="black" d="M166.15,-287.85C186.1,-258.69 221.26,-197.39 207.5,-144 197.86,-106.59 174.38,-68.4 157.49,-44.24"/>
<polygon fill="black" stroke="black" points="160.26,-42.11 151.6,-36.01 154.57,-46.18 160.26,-42.11"/>
</g>
<!-- app_android -->
<g id="node5" class="node">
<title>app_android</title>
<polygon fill="#09ad35" stroke="black" stroke-width="3" points="156.5,-468 52.5,-468 52.5,-432 156.5,-432 156.5,-468"/>
<text text-anchor="middle" x="104.5" y="-446.3" font-family="Times,serif" font-size="14.00">app_android</text>
</g>
<!-- app_android&#45;&gt;abc_android -->
<g id="edge5" class="edge">
<title>app_android&#45;&gt;abc_android</title>
<path fill="none" stroke="black" stroke-dasharray="1,5" d="M101.34,-431.97C92.49,-384.19 67.37,-248.62 56.55,-190.27"/>
<polygon fill="black" stroke="black" points="59.97,-189.5 54.71,-180.31 53.09,-190.78 59.97,-189.5"/>
</g>
<!-- app_android&#45;&gt;abc_kotlin_mp -->
<g id="edge6" class="edge">
<title>app_android&#45;&gt;abc_kotlin_mp</title>
<path fill="none" stroke="black" stroke-dasharray="1,5" d="M110.41,-431.87C118.8,-407.56 134.24,-362.82 144.18,-334.01"/>
<polygon fill="black" stroke="black" points="147.62,-334.78 147.57,-324.19 141,-332.5 147.62,-334.78"/>
</g>
</g>
</svg>
