<?xml version="1.0" encoding="UTF-8" standalone="no"?>
<!DOCTYPE svg PUBLIC "-//W3C//DTD SVG 1.1//EN"
 "http://www.w3.org/Graphics/SVG/1.1/DTD/svg11.dtd">
<!-- Generated by graphviz version 2.43.0 (0)
 -->
<!-- Title: %3 Pages: 1 -->
<svg width="509pt" height="393pt"
 viewBox="0.00 0.00 509.29 393.14" xmlns="http://www.w3.org/2000/svg" xmlns:xlink="http://www.w3.org/1999/xlink">
<g id="graph0" class="graph" transform="scale(1 1) rotate(0) translate(4 389.14)">
<title>%3</title>
<polygon fill="white" stroke="transparent" points="-4,4 -4,-389.14 505.29,-389.14 505.29,4 -4,4"/>
<!-- :android:app -->
<g id="node1" class="node">
<title>:android:app</title>
<ellipse fill="none" stroke="black" cx="362.16" cy="-18" rx="69.59" ry="18"/>
<text text-anchor="middle" x="362.16" y="-14.3" font-family="Times,serif" font-size="14.00">:android:app</text>
</g>
<!-- :android:lib -->
<g id="node2" class="node">
<title>:android:lib</title>
<ellipse fill="none" stroke="black" cx="160.58" cy="-18" rx="63.89" ry="18"/>
<text text-anchor="middle" x="160.58" y="-14.3" font-family="Times,serif" font-size="14.00">:android:lib</text>
</g>
<!-- :android:app&#45;&gt;:android:lib -->
<g id="edge1" class="edge">
<title>:android:app&#45;&gt;:android:lib</title>
<path fill="none" stroke="black" d="M292.5,-18C273.79,-18 253.49,-18 234.55,-18"/>
<polygon fill="black" stroke="black" points="234.49,-14.5 224.49,-18 234.49,-21.5 234.49,-14.5"/>
</g>
<!-- :kotlin:kmp -->
<g id="node5" class="node">
<title>:kotlin:kmp</title>
<ellipse fill="none" stroke="black" cx="160.58" cy="-367.14" rx="63.09" ry="18"/>
<text text-anchor="middle" x="160.58" y="-363.44" font-family="Times,serif" font-size="14.00">:kotlin:kmp</text>
</g>
<!-- :android:app&#45;&gt;:kotlin:kmp -->
<g id="edge2" class="edge">
<title>:android:app&#45;&gt;:kotlin:kmp</title>
<path fill="none" stroke="black" d="M351.6,-36.28C318.33,-93.9 215.53,-271.95 176.15,-340.17"/>
<polygon fill="black" stroke="black" points="173,-338.63 171.03,-349.04 179.06,-342.13 173,-338.63"/>
</g>
<!-- :kotlin:jvm -->
<g id="node4" class="node">
<title>:kotlin:jvm</title>
<ellipse fill="none" stroke="black" cx="59.79" cy="-192.57" rx="59.59" ry="18"/>
<text text-anchor="middle" x="59.79" y="-188.87" font-family="Times,serif" font-size="14.00">:kotlin:jvm</text>
</g>
<!-- :android:lib&#45;&gt;:kotlin:jvm -->
<g id="edge3" class="edge">
<title>:android:lib&#45;&gt;:kotlin:jvm</title>
<path fill="none" stroke="black" d="M150.18,-36.02C132.4,-66.81 96.1,-129.68 75.32,-165.68"/>
<polygon fill="black" stroke="black" points="72.11,-164.23 70.14,-174.64 78.18,-167.73 72.11,-164.23"/>
</g>
<!-- :other -->
<g id="node6" class="node">
<title>:other</title>
<ellipse fill="none" stroke="black" cx="462.94" cy="-192.57" rx="38.19" ry="18"/>
<text text-anchor="middle" x="462.94" y="-188.87" font-family="Times,serif" font-size="14.00">:other</text>
</g>
<!-- :android:lib&#45;&gt;:other -->
<g id="edge4" class="edge">
<title>:android:lib&#45;&gt;:other</title>
<path fill="none" stroke="black" d="M188.76,-34.27C244.81,-66.63 370.07,-138.95 429.9,-173.49"/>
<polygon fill="black" stroke="black" points="428.16,-176.53 438.57,-178.5 431.66,-170.47 428.16,-176.53"/>
</g>
<!-- :java -->
<g id="node3" class="node">
<title>:java</title>
<ellipse fill="none" stroke="black" cx="362.16" cy="-367.14" rx="32.49" ry="18"/>
<text text-anchor="middle" x="362.16" y="-363.44" font-family="Times,serif" font-size="14.00">:java</text>
</g>
<!-- :java&#45;&gt;:other -->
<g id="edge5" class="edge">
<title>:java&#45;&gt;:other</title>
<path fill="none" stroke="black" d="M372.19,-349.76C389.88,-319.12 426.71,-255.32 447.61,-219.13"/>
<polygon fill="black" stroke="black" points="450.83,-220.54 452.8,-210.13 444.77,-217.04 450.83,-220.54"/>
</g>
<!-- :kotlin:kmp&#45;&gt;:android:lib -->
<g id="edge6" class="edge">
<title>:kotlin:kmp&#45;&gt;:android:lib</title>
<path fill="none" stroke="black" d="M160.58,-348.86C160.58,-291.59 160.58,-115.36 160.58,-46.24"/>
<polygon fill="black" stroke="black" points="164.08,-46.1 160.58,-36.1 157.08,-46.1 164.08,-46.1"/>
</g>
<!-- :kotlin:kmp&#45;&gt;:java -->
<g id="edge7" class="edge">
<title>:kotlin:kmp&#45;&gt;:java</title>
<path fill="none" stroke="black" d="M223.81,-367.14C254.93,-367.14 291.63,-367.14 319.41,-367.14"/>
<polygon fill="black" stroke="black" points="319.59,-370.64 329.59,-367.14 319.59,-363.64 319.59,-370.64"/>
</g>
<!-- :kotlin:kmp&#45;&gt;:kotlin:jvm -->
<g id="edge8" class="edge">
<title>:kotlin:kmp&#45;&gt;:kotlin:jvm</title>
<path fill="none" stroke="black" d="M150.18,-349.11C132.4,-318.32 96.1,-255.45 75.32,-219.46"/>
<polygon fill="black" stroke="black" points="78.18,-217.4 70.14,-210.49 72.11,-220.9 78.18,-217.4"/>
</g>
</g>
</svg>
