<?xml version="1.0" encoding="UTF-8" standalone="no"?>
<!DOCTYPE svg PUBLIC "-//W3C//DTD SVG 1.1//EN"
 "http://www.w3.org/Graphics/SVG/1.1/DTD/svg11.dtd">
<!-- Generated by graphviz version 2.43.0 (0)
 -->
<!-- Title: %3 Pages: 1 -->
<svg width="256pt" height="260pt"
 viewBox="0.00 0.00 256.19 260.00" xmlns="http://www.w3.org/2000/svg" xmlns:xlink="http://www.w3.org/1999/xlink">
<g id="graph0" class="graph" transform="scale(1 1) rotate(0) translate(4 256)">
<title>%3</title>
<polygon fill="white" stroke="transparent" points="-4,4 -4,-256 252.19,-256 252.19,4 -4,4"/>
<!-- :android:app -->
<g id="node1" class="node">
<title>:android:app</title>
<ellipse fill="none" stroke="black" cx="137.5" cy="-234" rx="69.59" ry="18"/>
<text text-anchor="middle" x="137.5" y="-230.3" font-family="Times,serif" font-size="14.00">:android:app</text>
</g>
<!-- :android:lib -->
<g id="node2" class="node">
<title>:android:lib</title>
<ellipse fill="none" stroke="black" cx="184.5" cy="-90" rx="63.89" ry="18"/>
<text text-anchor="middle" x="184.5" y="-86.3" font-family="Times,serif" font-size="14.00">:android:lib</text>
</g>
<!-- :android:app&#45;&gt;:android:lib -->
<g id="edge1" class="edge">
<title>:android:app&#45;&gt;:android:lib</title>
<path fill="none" stroke="black" d="M147.63,-215.83C153.26,-205.68 160.01,-192.43 164.5,-180 171.78,-159.8 176.96,-136.02 180.22,-118.13"/>
<polygon fill="black" stroke="black" points="183.7,-118.54 181.96,-108.09 176.81,-117.34 183.7,-118.54"/>
</g>
<!-- :kotlin:kmp -->
<g id="node5" class="node">
<title>:kotlin:kmp</title>
<ellipse fill="none" stroke="black" cx="92.5" cy="-162" rx="63.09" ry="18"/>
<text text-anchor="middle" x="92.5" y="-158.3" font-family="Times,serif" font-size="14.00">:kotlin:kmp</text>
</g>
<!-- :android:app&#45;&gt;:kotlin:kmp -->
<g id="edge2" class="edge">
<title>:android:app&#45;&gt;:kotlin:kmp</title>
<path fill="none" stroke="black" d="M126.6,-216.05C121.24,-207.71 114.67,-197.49 108.73,-188.25"/>
<polygon fill="black" stroke="black" points="111.64,-186.31 103.29,-179.79 105.75,-190.09 111.64,-186.31"/>
</g>
<!-- :kotlin:jvm -->
<g id="node4" class="node">
<title>:kotlin:jvm</title>
<ellipse fill="none" stroke="black" cx="175.5" cy="-18" rx="59.59" ry="18"/>
<text text-anchor="middle" x="175.5" y="-14.3" font-family="Times,serif" font-size="14.00">:kotlin:jvm</text>
</g>
<!-- :android:lib&#45;&gt;:kotlin:jvm -->
<g id="edge3" class="edge">
<title>:android:lib&#45;&gt;:kotlin:jvm</title>
<path fill="none" stroke="black" d="M182.27,-71.7C181.28,-63.98 180.09,-54.71 178.98,-46.11"/>
<polygon fill="black" stroke="black" points="182.44,-45.58 177.7,-36.1 175.5,-46.47 182.44,-45.58"/>
</g>
<!-- :other -->
<g id="node6" class="node">
<title>:other</title>
<ellipse fill="none" stroke="black" cx="50.5" cy="-18" rx="38.19" ry="18"/>
<text text-anchor="middle" x="50.5" y="-14.3" font-family="Times,serif" font-size="14.00">:other</text>
</g>
<!-- :android:lib&#45;&gt;:other -->
<g id="edge4" class="edge">
<title>:android:lib&#45;&gt;:other</title>
<path fill="none" stroke="black" d="M155.42,-73.81C134.54,-62.9 106.34,-48.17 84.43,-36.72"/>
<polygon fill="black" stroke="black" points="85.95,-33.57 75.46,-32.04 82.71,-39.77 85.95,-33.57"/>
</g>
<!-- :java -->
<g id="node3" class="node">
<title>:java</title>
<ellipse fill="none" stroke="black" cx="32.5" cy="-90" rx="32.49" ry="18"/>
<text text-anchor="middle" x="32.5" y="-86.3" font-family="Times,serif" font-size="14.00">:java</text>
</g>
<!-- :java&#45;&gt;:other -->
<g id="edge5" class="edge">
<title>:java&#45;&gt;:other</title>
<path fill="none" stroke="black" d="M36.85,-72.05C38.86,-64.26 41.29,-54.82 43.53,-46.08"/>
<polygon fill="black" stroke="black" points="46.95,-46.83 46.05,-36.28 40.17,-45.09 46.95,-46.83"/>
</g>
<!-- :kotlin:kmp&#45;&gt;:android:lib -->
<g id="edge6" class="edge">
<title>:kotlin:kmp&#45;&gt;:android:lib</title>
<path fill="none" stroke="black" d="M113.84,-144.76C126.14,-135.4 141.8,-123.49 155.24,-113.26"/>
<polygon fill="black" stroke="black" points="157.44,-115.99 163.27,-107.15 153.2,-110.42 157.44,-115.99"/>
</g>
<!-- :kotlin:kmp&#45;&gt;:java -->
<g id="edge7" class="edge">
<title>:kotlin:kmp&#45;&gt;:java</title>
<path fill="none" stroke="black" d="M78.28,-144.41C70.59,-135.44 60.97,-124.21 52.53,-114.37"/>
<polygon fill="black" stroke="black" points="54.96,-111.83 45.79,-106.51 49.64,-116.38 54.96,-111.83"/>
</g>
<!-- :kotlin:kmp&#45;&gt;:kotlin:jvm -->
<g id="edge8" class="edge">
<title>:kotlin:kmp&#45;&gt;:kotlin:jvm</title>
<path fill="none" stroke="black" d="M92.87,-143.71C94,-124.82 97.99,-94.3 111.5,-72 118.94,-59.71 130.28,-48.96 141.36,-40.41"/>
<polygon fill="black" stroke="black" points="143.7,-43.04 149.71,-34.32 139.57,-37.38 143.7,-43.04"/>
</g>
</g>
</svg>
