<?xml version="1.0" encoding="UTF-8" standalone="no"?>
<!DOCTYPE svg PUBLIC "-//W3C//DTD SVG 1.1//EN"
 "http://www.w3.org/Graphics/SVG/1.1/DTD/svg11.dtd">
<!-- Generated by graphviz version 2.43.0 (0)
 -->
<!-- Title: %3 Pages: 1 -->
<svg width="428pt" height="585pt"
 viewBox="0.00 0.00 427.50 585.00" xmlns="http://www.w3.org/2000/svg" xmlns:xlink="http://www.w3.org/1999/xlink">
<g id="graph0" class="graph" transform="scale(1 1) rotate(0) translate(4 581)">
<title>%3</title>
<polygon fill="MidnightBlue" stroke="transparent" points="-4,4 -4,-581 423.5,-581 423.5,4 -4,4"/>
<!-- :sample&#45;app&#45;android -->
<g id="node1" class="node">
<title>:sample&#45;app&#45;android</title>
<polygon fill="limegreen" stroke="#4c0000" points="163,-563 8,-563 8,-539 163,-539 163,-533 181,-551 163,-569 163,-563"/>
<polygon fill="none" stroke="#4c0000" points="167,-567 4,-567 4,-535 167,-535 167,-529 185,-551 167,-573 167,-567"/>
<polygon fill="none" stroke="#4c0000" points="171,-571 0,-571 0,-531 171,-531 171,-525 189,-551 171,-577 171,-571"/>
<text text-anchor="middle" x="94.5" y="-547.3" font-family="Courier New" font-size="14.00" fill="white">:sample&#45;app&#45;android</text>
</g>
<!-- :sample&#45;lib&#45;android -->
<g id="node2" class="node">
<title>:sample&#45;lib&#45;android</title>
<defs>
<linearGradient id="l_0" gradientUnits="userSpaceOnUse" x1="181.5" y1="-183" x2="181.5" y2="-219" >
<stop offset="0" style="stop-color:crimson;stop-opacity:1.;"/>
<stop offset="1" style="stop-color:#008b8b;stop-opacity:1.;"/>
</linearGradient>
</defs>
<polygon fill="url(#l_0)" stroke="#4c0000" points="268,-219 95,-219 95,-183 268,-183 268,-219"/>
<polygon fill="none" stroke="#4c0000" points="272,-223 91,-223 91,-179 272,-179 272,-223"/>
<polygon fill="none" stroke="#4c0000" points="276,-227 87,-227 87,-175 276,-175 276,-227"/>
<text text-anchor="middle" x="181.5" y="-197.3" font-family="Courier New" font-size="14.00" fill="white">:sample&#45;lib&#45;android</text>
</g>
<!-- :sample&#45;app&#45;android&#45;&gt;:sample&#45;lib&#45;android -->
<g id="edge1" class="edge">
<title>:sample&#45;app&#45;android&#45;&gt;:sample&#45;lib&#45;android</title>
<path fill="none" stroke="red" stroke-dasharray="1,5" d="M86.35,-512.71C78.99,-471.88 71.54,-404.91 87.5,-350 99.97,-307.12 129.01,-264.78 151.54,-236.45"/>
<polygon fill="none" stroke="red" points="86.4,-512.96 91.46,-518.1 88.66,-524.75 83.6,-519.61 86.4,-512.96"/>
<polygon fill="none" stroke="red" points="151.63,-236.34 152.32,-229.16 159.2,-227.03 158.52,-234.21 151.63,-236.34"/>
<text text-anchor="middle" x="144" y="-372.3" font-family="Times,serif" font-size="14.00" fill="white">implementation</text>
</g>
<!-- :sample&#45;lib&#45;kotlin&#45;mp -->
<g id="node4" class="node">
<title>:sample&#45;lib&#45;kotlin&#45;mp</title>
<polygon fill="mediumslateblue" stroke="#4c0000" points="407.5,-394 217.5,-394 217.5,-358 407.5,-358 407.5,-394"/>
<polygon fill="none" stroke="#4c0000" points="411.5,-398 213.5,-398 213.5,-354 411.5,-354 411.5,-398"/>
<polygon fill="none" stroke="#4c0000" points="415.5,-402 209.5,-402 209.5,-350 415.5,-350 415.5,-402"/>
<text text-anchor="middle" x="312.5" y="-372.3" font-family="Courier New" font-size="14.00" fill="red">:sample&#45;lib&#45;kotlin&#45;mp</text>
</g>
<!-- :sample&#45;app&#45;android&#45;&gt;:sample&#45;lib&#45;kotlin&#45;mp -->
<g id="edge2" class="edge">
<title>:sample&#45;app&#45;android&#45;&gt;:sample&#45;lib&#45;kotlin&#45;mp</title>
<path fill="none" stroke="red" stroke-dasharray="1,5" d="M135.62,-517.37C174.47,-486.54 232.44,-440.54 271.31,-409.68"/>
<polygon fill="none" stroke="red" points="135.6,-517.38 133.39,-524.25 126.2,-524.84 128.41,-517.98 135.6,-517.38"/>
<polygon fill="none" stroke="red" points="271.36,-409.65 273.58,-402.78 280.76,-402.19 278.55,-409.05 271.36,-409.65"/>
<text text-anchor="middle" x="266" y="-459.8" font-family="Times,serif" font-size="14.00" fill="white">implementation</text>
</g>
<!-- :sample&#45;lib&#45;kotlin&#45;jvm -->
<g id="node3" class="node">
<title>:sample&#45;lib&#45;kotlin&#45;jvm</title>
<polygon fill="mediumorchid" stroke="#4c0000" points="411.5,-44 213.5,-44 213.5,-8 411.5,-8 411.5,-44"/>
<polygon fill="none" stroke="#4c0000" points="415.5,-48 209.5,-48 209.5,-4 415.5,-4 415.5,-48"/>
<polygon fill="none" stroke="#4c0000" points="419.5,-52 205.5,-52 205.5,0 419.5,0 419.5,-52"/>
<text text-anchor="middle" x="312.5" y="-22.3" font-family="Courier New" font-size="14.00" fill="white">:sample&#45;lib&#45;kotlin&#45;jvm</text>
</g>
<!-- :sample&#45;lib&#45;android&#45;&gt;:sample&#45;lib&#45;kotlin&#45;jvm -->
<g id="edge3" class="edge">
<title>:sample&#45;lib&#45;android&#45;&gt;:sample&#45;lib&#45;kotlin&#45;jvm</title>
<path fill="none" stroke="red" stroke-dasharray="1,5" d="M175.3,-162.67C174.14,-144.44 175.66,-122.85 185.5,-106 197.32,-85.76 216.59,-69.97 236.59,-58.01"/>
<polygon fill="none" stroke="red" points="175.31,-162.72 179.87,-168.31 176.47,-174.67 171.91,-169.08 175.31,-162.72"/>
<polygon fill="none" stroke="red" points="236.63,-57.99 239.89,-51.56 247.08,-52.1 243.82,-58.53 236.63,-57.99"/>
<text text-anchor="middle" x="242" y="-109.8" font-family="Times,serif" font-size="14.00" fill="white">implementation</text>
</g>
<!-- :sample&#45;lib&#45;kotlin&#45;mp&#45;&gt;:sample&#45;lib&#45;android -->
<g id="edge4" class="edge">
<title>:sample&#45;lib&#45;kotlin&#45;mp&#45;&gt;:sample&#45;lib&#45;android</title>
<path fill="none" stroke="red" d="M293.45,-349.84C270.94,-320.12 233.36,-270.48 208.01,-237.01"/>
<polygon fill="none" stroke="red" points="207.82,-236.75 201,-234.38 200.57,-227.19 207.38,-229.55 207.82,-236.75"/>
<text text-anchor="middle" x="261.5" y="-284.8" font-family="Times,serif" font-size="14.00" fill="white">api</text>
</g>
<!-- :sample&#45;lib&#45;kotlin&#45;mp&#45;&gt;:sample&#45;lib&#45;kotlin&#45;jvm -->
<g id="edge5" class="edge">
<title>:sample&#45;lib&#45;kotlin&#45;mp&#45;&gt;:sample&#45;lib&#45;kotlin&#45;jvm</title>
<path fill="none" stroke="red" d="M312.5,-349.97C312.5,-289.67 312.5,-136.07 312.5,-64.61"/>
<polygon fill="none" stroke="red" points="312.5,-64.27 308.5,-58.27 312.5,-52.27 316.5,-58.27 312.5,-64.27"/>
<text text-anchor="middle" x="323.5" y="-197.3" font-family="Times,serif" font-size="14.00" fill="white">api</text>
</g>
</g>
</svg>
