<?xml version="1.0" encoding="UTF-8" standalone="no"?>
<!DOCTYPE svg PUBLIC "-//W3C//DTD SVG 1.1//EN"
 "http://www.w3.org/Graphics/SVG/1.1/DTD/svg11.dtd">
<!-- Generated by graphviz version 2.43.0 (0)
 -->
<!-- Title: %3 Pages: 1 -->
<svg width="447pt" height="661pt"
 viewBox="0.00 0.00 447.00 661.00" xmlns="http://www.w3.org/2000/svg" xmlns:xlink="http://www.w3.org/1999/xlink">
<g id="graph0" class="graph" transform="scale(1.39 1.39) rotate(0) translate(4 472)">
<title>%3</title>
<polygon fill="white" stroke="transparent" points="-4,4 -4,-472 317.75,-472 317.75,4 -4,4"/>
<!-- :sample&#45;app&#45;android -->
<g id="node1" class="node">
<title>:sample&#45;app&#45;android</title>
<polygon fill="limegreen" stroke="black" stroke-width="3" points="237,-468 75,-468 75,-432 237,-432 237,-468"/>
<text text-anchor="middle" x="156" y="-446.3" font-family="Times,serif" font-size="14.00">:sample&#45;app&#45;android</text>
</g>
<!-- :sample&#45;lib&#45;android -->
<g id="node2" class="node">
<title>:sample&#45;lib&#45;android</title>
<polygon fill="lightgreen" stroke="transparent" points="154,-180 0,-180 0,-144 154,-144 154,-180"/>
<text text-anchor="middle" x="77" y="-158.3" font-family="Times,serif" font-size="14.00">:sample&#45;lib&#45;android</text>
</g>
<!-- :sample&#45;app&#45;android&#45;&gt;:sample&#45;lib&#45;android -->
<g id="edge1" class="edge">
<title>:sample&#45;app&#45;android&#45;&gt;:sample&#45;lib&#45;android</title>
<path fill="none" stroke="black" stroke-dasharray="1,5" d="M151.29,-431.97C138.1,-384.19 100.65,-248.62 84.53,-190.27"/>
<polygon fill="black" stroke="black" points="87.82,-189.01 81.78,-180.31 81.07,-190.88 87.82,-189.01"/>
</g>
<!-- :sample&#45;lib&#45;kotlin&#45;mp -->
<g id="node5" class="node">
<title>:sample&#45;lib&#45;kotlin&#45;mp</title>
<polygon fill="mediumslateblue" stroke="transparent" points="307.5,-324 140.5,-324 140.5,-288 307.5,-288 307.5,-324"/>
<text text-anchor="middle" x="224" y="-302.3" font-family="Times,serif" font-size="14.00">:sample&#45;lib&#45;kotlin&#45;mp</text>
</g>
<!-- :sample&#45;app&#45;android&#45;&gt;:sample&#45;lib&#45;kotlin&#45;mp -->
<g id="edge2" class="edge">
<title>:sample&#45;app&#45;android&#45;&gt;:sample&#45;lib&#45;kotlin&#45;mp</title>
<path fill="none" stroke="black" stroke-dasharray="1,5" d="M164.2,-431.87C175.94,-407.35 197.65,-362.03 211.43,-333.26"/>
<polygon fill="black" stroke="black" points="214.61,-334.72 215.77,-324.19 208.29,-331.7 214.61,-334.72"/>
</g>
<!-- :sample&#45;lib&#45;kotlin&#45;jvm -->
<g id="node4" class="node">
<title>:sample&#45;lib&#45;kotlin&#45;jvm</title>
<polygon fill="mediumorchid" stroke="transparent" points="287,-36 117,-36 117,0 287,0 287,-36"/>
<text text-anchor="middle" x="202" y="-14.3" font-family="Times,serif" font-size="14.00">:sample&#45;lib&#45;kotlin&#45;jvm</text>
</g>
<!-- :sample&#45;lib&#45;android&#45;&gt;:sample&#45;lib&#45;kotlin&#45;jvm -->
<g id="edge3" class="edge">
<title>:sample&#45;lib&#45;android&#45;&gt;:sample&#45;lib&#45;kotlin&#45;jvm</title>
<path fill="none" stroke="black" stroke-dasharray="1,5" d="M92.08,-143.87C114.04,-118.92 154.95,-72.45 180.19,-43.77"/>
<polygon fill="black" stroke="black" points="182.89,-46.01 186.87,-36.19 177.63,-41.38 182.89,-46.01"/>
</g>
<!-- :sample&#45;lib&#45;java -->
<g id="node3" class="node">
<title>:sample&#45;lib&#45;java</title>
<polygon fill="orange" stroke="transparent" points="300,-180 172,-180 172,-144 300,-144 300,-180"/>
<text text-anchor="middle" x="236" y="-158.3" font-family="Times,serif" font-size="14.00">:sample&#45;lib&#45;java</text>
</g>
<!-- :sample&#45;lib&#45;kotlin&#45;mp&#45;&gt;:sample&#45;lib&#45;android -->
<g id="edge4" class="edge">
<title>:sample&#45;lib&#45;kotlin&#45;mp&#45;&gt;:sample&#45;lib&#45;android</title>
<path fill="none" stroke="black" d="M206.27,-287.87C180.33,-262.82 131.92,-216.05 102.27,-187.41"/>
<polygon fill="black" stroke="black" points="104.42,-184.62 94.79,-180.19 99.56,-189.65 104.42,-184.62"/>
</g>
<!-- :sample&#45;lib&#45;kotlin&#45;mp&#45;&gt;:sample&#45;lib&#45;java -->
<g id="edge5" class="edge">
<title>:sample&#45;lib&#45;kotlin&#45;mp&#45;&gt;:sample&#45;lib&#45;java</title>
<path fill="none" stroke="orange" stroke-width="2" d="M225.45,-287.87C227.49,-263.67 231.25,-219.21 233.69,-190.39"/>
<polygon fill="orange" stroke="orange" stroke-width="2" points="237.19,-190.45 234.55,-180.19 230.22,-189.86 237.19,-190.45"/>
</g>
<!-- :sample&#45;lib&#45;kotlin&#45;mp&#45;&gt;:sample&#45;lib&#45;kotlin&#45;jvm -->
<g id="edge6" class="edge">
<title>:sample&#45;lib&#45;kotlin&#45;mp&#45;&gt;:sample&#45;lib&#45;kotlin&#45;jvm</title>
<path fill="none" stroke="black" d="M244.16,-287.84C275.27,-259.15 329.38,-199.15 309,-144 293.65,-102.48 257.68,-65.42 231.67,-42.64"/>
<polygon fill="black" stroke="black" points="233.83,-39.88 223.95,-36.04 229.28,-45.2 233.83,-39.88"/>
</g>
</g>
</svg>
