<?xml version="1.0" encoding="UTF-8" standalone="no"?>
<!DOCTYPE svg PUBLIC "-//W3C//DTD SVG 1.1//EN"
 "http://www.w3.org/Graphics/SVG/1.1/DTD/svg11.dtd">
<!-- Generated by graphviz version 2.43.0 (0)
 -->
<!-- Title: %3 Pages: 1 -->
<svg width="243pt" height="461pt"
 viewBox="0.00 0.00 243.00 461.00" xmlns="http://www.w3.org/2000/svg" xmlns:xlink="http://www.w3.org/1999/xlink">
<g id="graph0" class="graph" transform="scale(1.39 1.39) rotate(0) translate(4 328)">
<title>%3</title>
<!-- :sample&#45;app&#45;android -->
<g id="node1" class="node">
<title>:sample&#45;app&#45;android</title>
<polygon fill="limegreen" stroke="transparent" points="164.5,-324 2.5,-324 2.5,-288 164.5,-288 164.5,-324"/>
<text text-anchor="middle" x="83.5" y="-302.3" font-family="Times,serif" font-size="14.00">:sample&#45;app&#45;android</text>
</g>
<!-- :sample&#45;lib&#45;kotlin&#45;mp -->
<g id="node3" class="node">
<title>:sample&#45;lib&#45;kotlin&#45;mp</title>
<polygon fill="mediumslateblue" stroke="transparent" points="167,-180 0,-180 0,-144 167,-144 167,-180"/>
<text text-anchor="middle" x="83.5" y="-158.3" font-family="Times,serif" font-size="14.00">:sample&#45;lib&#45;kotlin&#45;mp</text>
</g>
<!-- :sample&#45;app&#45;android&#45;&gt;:sample&#45;lib&#45;kotlin&#45;mp -->
<g id="edge1" class="edge">
<title>:sample&#45;app&#45;android&#45;&gt;:sample&#45;lib&#45;kotlin&#45;mp</title>
<path fill="none" stroke="black" stroke-dasharray="1,5" d="M83.5,-287.87C83.5,-263.67 83.5,-219.21 83.5,-190.39"/>
<polygon fill="black" stroke="black" points="87,-190.19 83.5,-180.19 80,-190.19 87,-190.19"/>
</g>
<!-- :sample&#45;lib&#45;java -->
<g id="node2" class="node">
<title>:sample&#45;lib&#45;java</title>
<polygon fill="orange" stroke="black" stroke-width="3" points="147.5,-36 19.5,-36 19.5,0 147.5,0 147.5,-36"/>
<text text-anchor="middle" x="83.5" y="-14.3" font-family="Times,serif" font-size="14.00">:sample&#45;lib&#45;java</text>
</g>
<!-- :sample&#45;lib&#45;kotlin&#45;mp&#45;&gt;:sample&#45;lib&#45;java -->
<g id="edge2" class="edge">
<title>:sample&#45;lib&#45;kotlin&#45;mp&#45;&gt;:sample&#45;lib&#45;java</title>
<path fill="none" stroke="orange" stroke-width="2" d="M83.5,-143.87C83.5,-119.67 83.5,-75.21 83.5,-46.39"/>
<polygon fill="orange" stroke="orange" stroke-width="2" points="87,-46.19 83.5,-36.19 80,-46.19 87,-46.19"/>
</g>
</g>
</svg>
