<?xml version="1.0" encoding="UTF-8" standalone="no"?>
<!DOCTYPE svg PUBLIC "-//W3C//DTD SVG 1.1//EN"
 "http://www.w3.org/Graphics/SVG/1.1/DTD/svg11.dtd">
<!-- Generated by graphviz version 2.43.0 (0)
 -->
<!-- Title: %3 Pages: 1 -->
<svg width="287pt" height="410pt"
 viewBox="0.00 0.00 287.00 410.00" xmlns="http://www.w3.org/2000/svg" xmlns:xlink="http://www.w3.org/1999/xlink">
<g id="graph0" class="graph" transform="scale(1 1) rotate(0) translate(4 406)">
<title>%3</title>
<polygon fill="MidnightBlue" stroke="transparent" points="-4,4 -4,-406 283,-406 283,4 -4,4"/>
<!-- :sample&#45;app&#45;android -->
<g id="node1" class="node">
<title>:sample&#45;app&#45;android</title>
<polygon fill="limegreen" stroke="#4c0000" points="171.5,-388 16.5,-388 16.5,-364 171.5,-364 171.5,-358 189.5,-376 171.5,-394 171.5,-388"/>
<polygon fill="none" stroke="#4c0000" points="175.5,-392 12.5,-392 12.5,-360 175.5,-360 175.5,-354 193.5,-376 175.5,-398 175.5,-392"/>
<polygon fill="none" stroke="#4c0000" points="179.5,-396 8.5,-396 8.5,-356 179.5,-356 179.5,-350 197.5,-376 179.5,-402 179.5,-396"/>
<text text-anchor="middle" x="103" y="-372.3" font-family="Courier New" font-size="14.00">:sample&#45;app&#45;android</text>
</g>
<!-- :sample&#45;lib&#45;kotlin&#45;mp -->
<g id="node3" class="node">
<title>:sample&#45;lib&#45;kotlin&#45;mp</title>
<polygon fill="mediumslateblue" stroke="#4c0000" points="198,-219 8,-219 8,-183 198,-183 198,-219"/>
<polygon fill="none" stroke="#4c0000" points="202,-223 4,-223 4,-179 202,-179 202,-223"/>
<polygon fill="none" stroke="#4c0000" points="206,-227 0,-227 0,-175 206,-175 206,-227"/>
<text text-anchor="middle" x="103" y="-197.3" font-family="Courier New" font-size="14.00" fill="white">:sample&#45;lib&#45;kotlin&#45;mp</text>
</g>
<!-- :sample&#45;app&#45;android&#45;&gt;:sample&#45;lib&#45;kotlin&#45;mp -->
<g id="edge1" class="edge">
<title>:sample&#45;app&#45;android&#45;&gt;:sample&#45;lib&#45;kotlin&#45;mp</title>
<path fill="none" stroke="red" stroke-dasharray="1,5" d="M103,-337.83C103,-308.74 103,-268.45 103,-239.32"/>
<polygon fill="none" stroke="red" points="103,-337.84 107,-343.84 103,-349.84 99,-343.84 103,-337.84"/>
<polygon fill="none" stroke="red" points="103,-239.19 99,-233.19 103,-227.19 107,-233.19 103,-239.19"/>
<text text-anchor="middle" x="159.5" y="-284.8" font-family="Times,serif" font-size="14.00" fill="white">implementation</text>
</g>
<!-- :sample&#45;lib&#45;java -->
<g id="node2" class="node">
<title>:sample&#45;lib&#45;java</title>
<polygon fill="orange" stroke="#4c0000" points="177.5,-44 28.5,-44 28.5,-8 177.5,-8 177.5,-44"/>
<polygon fill="none" stroke="#4c0000" points="181.5,-48 24.5,-48 24.5,-4 181.5,-4 181.5,-48"/>
<polygon fill="none" stroke="#4c0000" points="185.5,-52 20.5,-52 20.5,0 185.5,0 185.5,-52"/>
<text text-anchor="middle" x="103" y="-22.3" font-family="Courier New" font-size="14.00">:sample&#45;lib&#45;java</text>
</g>
<!-- :sample&#45;lib&#45;kotlin&#45;mp&#45;&gt;:sample&#45;lib&#45;java -->
<g id="edge2" class="edge">
<title>:sample&#45;lib&#45;kotlin&#45;mp&#45;&gt;:sample&#45;lib&#45;java</title>
<path fill="none" stroke="orange" stroke-width="2" d="M103,-174.84C103,-145.25 103,-95.91 103,-62.45"/>
<polygon fill="orange" stroke="orange" stroke-width="2" points="103,-62.19 107.5,-52.19 103,-57.19 103,-52.19 103,-52.19 103,-52.19 103,-57.19 98.5,-52.19 103,-62.19 103,-62.19"/>
<text text-anchor="middle" x="191" y="-109.8" font-family="Times,serif" font-size="14.00" fill="white">jvmMainImplementation</text>
</g>
</g>
</svg>
