<?xml version="1.0" encoding="UTF-8" standalone="no"?>
<!DOCTYPE svg PUBLIC "-//W3C//DTD SVG 1.1//EN"
 "http://www.w3.org/Graphics/SVG/1.1/DTD/svg11.dtd">
<!-- Generated by graphviz version 2.43.0 (0)
 -->
<!-- Title: %3 Pages: 1 -->
<svg width="214pt" height="380pt"
 viewBox="0.00 0.00 214.00 380.00" xmlns="http://www.w3.org/2000/svg" xmlns:xlink="http://www.w3.org/1999/xlink">
<g id="graph0" class="graph" transform="scale(1 1) rotate(0) translate(4 376)">
<title>%3</title>
<polygon fill="MidnightBlue" stroke="transparent" points="-4,4 -4,-376 210,-376 210,4 -4,4"/>
<!-- :sample&#45;app&#45;android -->
<g id="node1" class="node">
<title>:sample&#45;app&#45;android</title>
<polygon fill="limegreen" stroke="black" points="171.5,-358 16.5,-358 16.5,-334 171.5,-334 171.5,-328 189.5,-346 171.5,-364 171.5,-358"/>
<polygon fill="none" stroke="black" points="175.5,-362 12.5,-362 12.5,-330 175.5,-330 175.5,-324 193.5,-346 175.5,-368 175.5,-362"/>
<polygon fill="none" stroke="black" points="179.5,-366 8.5,-366 8.5,-326 179.5,-326 179.5,-320 197.5,-346 179.5,-372 179.5,-366"/>
<text text-anchor="middle" x="103" y="-342.3" font-family="Courier New" font-size="14.00">:sample&#45;app&#45;android</text>
</g>
<!-- :sample&#45;lib&#45;kotlin&#45;mp -->
<g id="node3" class="node">
<title>:sample&#45;lib&#45;kotlin&#45;mp</title>
<polygon fill="mediumslateblue" stroke="black" points="198,-204 8,-204 8,-168 198,-168 198,-204"/>
<polygon fill="none" stroke="black" points="202,-208 4,-208 4,-164 202,-164 202,-208"/>
<polygon fill="none" stroke="black" points="206,-212 0,-212 0,-160 206,-160 206,-212"/>
<text text-anchor="middle" x="103" y="-182.3" font-family="Courier New" font-size="14.00" fill="white">:sample&#45;lib&#45;kotlin&#45;mp</text>
</g>
<!-- :sample&#45;app&#45;android&#45;&gt;:sample&#45;lib&#45;kotlin&#45;mp -->
<g id="edge1" class="edge">
<title>:sample&#45;app&#45;android&#45;&gt;:sample&#45;lib&#45;kotlin&#45;mp</title>
<path fill="none" stroke="red" stroke-dasharray="1,5" d="M103,-319.96C103,-294.27 103,-253.98 103,-224.48"/>
<polygon fill="none" stroke="red" points="103,-224.18 99,-218.18 103,-212.18 107,-218.18 103,-224.18"/>
</g>
<!-- :sample&#45;lib&#45;java -->
<g id="node2" class="node">
<title>:sample&#45;lib&#45;java</title>
<polygon fill="orange" stroke="black" stroke-width="3" points="177.5,-44 28.5,-44 28.5,-8 177.5,-8 177.5,-44"/>
<polygon fill="none" stroke="black" stroke-width="3" points="181.5,-48 24.5,-48 24.5,-4 181.5,-4 181.5,-48"/>
<polygon fill="none" stroke="black" stroke-width="3" points="185.5,-52 20.5,-52 20.5,0 185.5,0 185.5,-52"/>
<text text-anchor="middle" x="103" y="-22.3" font-family="Courier New" font-size="14.00">:sample&#45;lib&#45;java</text>
</g>
<!-- :sample&#45;lib&#45;kotlin&#45;mp&#45;&gt;:sample&#45;lib&#45;java -->
<g id="edge2" class="edge">
<title>:sample&#45;lib&#45;kotlin&#45;mp&#45;&gt;:sample&#45;lib&#45;java</title>
<path fill="none" stroke="orange" stroke-width="2" d="M103,-159.96C103,-134.27 103,-93.98 103,-64.48"/>
<polygon fill="none" stroke="orange" stroke-width="2" points="103,-64.18 99,-58.18 103,-52.18 107,-58.18 103,-64.18"/>
</g>
</g>
</svg>
