<?xml version="1.0" encoding="UTF-8" standalone="no"?>
<!DOCTYPE svg PUBLIC "-//W3C//DTD SVG 1.1//EN"
 "http://www.w3.org/Graphics/SVG/1.1/DTD/svg11.dtd">
<!-- Generated by graphviz version 2.43.0 (0)
 -->
<!-- Title: %3 Pages: 1 -->
<svg width="396pt" height="540pt"
 viewBox="0.00 0.00 395.80 540.00" xmlns="http://www.w3.org/2000/svg" xmlns:xlink="http://www.w3.org/1999/xlink">
<g id="graph0" class="graph" transform="scale(1 1) rotate(0) translate(4 536)">
<title>%3</title>
<polygon fill="MidnightBlue" stroke="transparent" points="-4,4 -4,-536 391.8,-536 391.8,4 -4,4"/>
<!-- :sample&#45;app&#45;android -->
<g id="node1" class="node">
<title>:sample&#45;app&#45;android</title>
<polygon fill="limegreen" stroke="black" points="260,-518 105,-518 105,-494 260,-494 260,-488 278,-506 260,-524 260,-518"/>
<polygon fill="none" stroke="black" points="264,-522 101,-522 101,-490 264,-490 264,-484 282,-506 264,-528 264,-522"/>
<polygon fill="none" stroke="black" points="268,-526 97,-526 97,-486 268,-486 268,-480 286,-506 268,-532 268,-526"/>
<text text-anchor="middle" x="191.5" y="-502.3" font-family="Courier New" font-size="14.00">:sample&#45;app&#45;android</text>
</g>
<!-- :sample&#45;lib&#45;android -->
<g id="node2" class="node">
<title>:sample&#45;lib&#45;android</title>
<defs>
<linearGradient id="l_0" gradientUnits="userSpaceOnUse" x1="94.5" y1="-168" x2="94.5" y2="-204" >
<stop offset="0" style="stop-color:crimson;stop-opacity:1.;"/>
<stop offset="1" style="stop-color:#008b8b;stop-opacity:1.;"/>
</linearGradient>
</defs>
<polygon fill="url(#l_0)" stroke="black" points="181,-204 8,-204 8,-168 181,-168 181,-204"/>
<polygon fill="none" stroke="black" points="185,-208 4,-208 4,-164 185,-164 185,-208"/>
<polygon fill="none" stroke="black" points="189,-212 0,-212 0,-160 189,-160 189,-212"/>
<text text-anchor="middle" x="94.5" y="-182.3" font-family="Courier New" font-size="14.00">:sample&#45;lib&#45;android</text>
</g>
<!-- :sample&#45;app&#45;android&#45;&gt;:sample&#45;lib&#45;android -->
<g id="edge1" class="edge">
<title>:sample&#45;app&#45;android&#45;&gt;:sample&#45;lib&#45;android</title>
<path fill="none" stroke="red" stroke-dasharray="1,5" d="M183.81,-479.78C166.76,-423.89 125.73,-289.38 105.78,-223.97"/>
<polygon fill="none" stroke="red" points="105.69,-223.7 100.12,-219.13 102.19,-212.22 107.77,-216.79 105.69,-223.7"/>
</g>
<!-- :sample&#45;lib&#45;kotlin&#45;mp -->
<g id="node5" class="node">
<title>:sample&#45;lib&#45;kotlin&#45;mp</title>
<polygon fill="mediumslateblue" stroke="black" points="368.5,-364 178.5,-364 178.5,-328 368.5,-328 368.5,-364"/>
<polygon fill="none" stroke="black" points="372.5,-368 174.5,-368 174.5,-324 372.5,-324 372.5,-368"/>
<polygon fill="none" stroke="black" points="376.5,-372 170.5,-372 170.5,-320 376.5,-320 376.5,-372"/>
<text text-anchor="middle" x="273.5" y="-342.3" font-family="Courier New" font-size="14.00" fill="white">:sample&#45;lib&#45;kotlin&#45;mp</text>
</g>
<!-- :sample&#45;app&#45;android&#45;&gt;:sample&#45;lib&#45;kotlin&#45;mp -->
<g id="edge2" class="edge">
<title>:sample&#45;app&#45;android&#45;&gt;:sample&#45;lib&#45;kotlin&#45;mp</title>
<path fill="none" stroke="red" stroke-dasharray="1,5" d="M204.49,-479.96C218.07,-453.81 239.49,-412.53 254.86,-382.91"/>
<polygon fill="none" stroke="red" points="254.9,-382.83 254.12,-375.66 260.43,-372.18 261.22,-379.35 254.9,-382.83"/>
</g>
<!-- :sample&#45;lib&#45;kotlin&#45;jvm -->
<g id="node4" class="node">
<title>:sample&#45;lib&#45;kotlin&#45;jvm</title>
<polygon fill="mediumorchid" stroke="black" points="346.5,-44 148.5,-44 148.5,-8 346.5,-8 346.5,-44"/>
<polygon fill="none" stroke="black" points="350.5,-48 144.5,-48 144.5,-4 350.5,-4 350.5,-48"/>
<polygon fill="none" stroke="black" points="354.5,-52 140.5,-52 140.5,0 354.5,0 354.5,-52"/>
<text text-anchor="middle" x="247.5" y="-22.3" font-family="Courier New" font-size="14.00">:sample&#45;lib&#45;kotlin&#45;jvm</text>
</g>
<!-- :sample&#45;lib&#45;android&#45;&gt;:sample&#45;lib&#45;kotlin&#45;jvm -->
<g id="edge3" class="edge">
<title>:sample&#45;lib&#45;android&#45;&gt;:sample&#45;lib&#45;kotlin&#45;jvm</title>
<path fill="none" stroke="red" stroke-dasharray="1,5" d="M118.74,-159.96C144.63,-133.23 185.81,-90.71 214.61,-60.97"/>
<polygon fill="none" stroke="red" points="214.77,-60.8 216.07,-53.71 223.12,-52.18 221.82,-59.27 214.77,-60.8"/>
</g>
<!-- :sample&#45;lib&#45;java -->
<g id="node3" class="node">
<title>:sample&#45;lib&#45;java</title>
<polygon fill="orange" stroke="black" points="364,-204 215,-204 215,-168 364,-168 364,-204"/>
<polygon fill="none" stroke="black" points="368,-208 211,-208 211,-164 368,-164 368,-208"/>
<polygon fill="none" stroke="black" points="372,-212 207,-212 207,-160 372,-160 372,-212"/>
<text text-anchor="middle" x="289.5" y="-182.3" font-family="Courier New" font-size="14.00">:sample&#45;lib&#45;java</text>
</g>
<!-- :sample&#45;lib&#45;kotlin&#45;mp&#45;&gt;:sample&#45;lib&#45;android -->
<g id="edge4" class="edge">
<title>:sample&#45;lib&#45;kotlin&#45;mp&#45;&gt;:sample&#45;lib&#45;android</title>
<path fill="none" stroke="red" d="M245.14,-319.96C214.59,-293 165.84,-249.97 132.11,-220.2"/>
<polygon fill="none" stroke="red" points="132.02,-220.12 124.88,-219.15 123.03,-212.18 130.17,-213.15 132.02,-220.12"/>
</g>
<!-- :sample&#45;lib&#45;kotlin&#45;mp&#45;&gt;:sample&#45;lib&#45;java -->
<g id="edge5" class="edge">
<title>:sample&#45;lib&#45;kotlin&#45;mp&#45;&gt;:sample&#45;lib&#45;java</title>
<path fill="none" stroke="orange" stroke-width="2" d="M276.04,-319.96C278.64,-294.27 282.72,-253.98 285.7,-224.48"/>
<polygon fill="none" stroke="orange" stroke-width="2" points="285.74,-224.12 282.37,-217.75 286.95,-212.18 290.33,-218.55 285.74,-224.12"/>
</g>
<!-- :sample&#45;lib&#45;kotlin&#45;mp&#45;&gt;:sample&#45;lib&#45;kotlin&#45;jvm -->
<g id="edge6" class="edge">
<title>:sample&#45;lib&#45;kotlin&#45;mp&#45;&gt;:sample&#45;lib&#45;kotlin&#45;jvm</title>
<path fill="none" stroke="red" d="M305.92,-319.8C346.18,-285.21 406.66,-220.43 381.5,-160 364.16,-118.36 326.75,-83.06 295.85,-59.31"/>
<polygon fill="none" stroke="red" points="295.69,-59.19 288.49,-58.81 286.08,-52.01 293.28,-52.4 295.69,-59.19"/>
</g>
</g>
</svg>
