<?xml version="1.0" encoding="UTF-8" standalone="no"?>
<!DOCTYPE svg PUBLIC "-//W3C//DTD SVG 1.1//EN"
 "http://www.w3.org/Graphics/SVG/1.1/DTD/svg11.dtd">
<!-- Generated by graphviz version 2.43.0 (0)
 -->
<!-- Title: %3 Pages: 1 -->
<svg width="516pt" height="540pt"
 viewBox="0.00 0.00 515.50 540.00" xmlns="http://www.w3.org/2000/svg" xmlns:xlink="http://www.w3.org/1999/xlink">
<g id="graph0" class="graph" transform="scale(1 1) rotate(0) translate(4 536)">
<title>%3</title>
<polygon fill="MidnightBlue" stroke="transparent" points="-4,4 -4,-536 511.5,-536 511.5,4 -4,4"/>
<!-- :sample&#45;app&#45;android -->
<g id="node1" class="node">
<title>:sample&#45;app&#45;android</title>
<polygon fill="limegreen" stroke="#4c0000" points="260,-518 105,-518 105,-494 260,-494 260,-488 278,-506 260,-524 260,-518"/>
<polygon fill="none" stroke="#4c0000" points="264,-522 101,-522 101,-490 264,-490 264,-484 282,-506 264,-528 264,-522"/>
<polygon fill="none" stroke="#4c0000" points="268,-526 97,-526 97,-486 268,-486 268,-480 286,-506 268,-532 268,-526"/>
<text text-anchor="middle" x="191.5" y="-502.3" font-family="Courier New" font-size="14.00">:sample&#45;app&#45;android</text>
</g>
<!-- :sample&#45;lib&#45;android -->
<g id="node2" class="node">
<title>:sample&#45;lib&#45;android</title>
<defs>
<linearGradient id="l_0" gradientUnits="userSpaceOnUse" x1="94.5" y1="-168" x2="94.5" y2="-204" >
<stop offset="0" style="stop-color:crimson;stop-opacity:1.;"/>
<stop offset="1" style="stop-color:#008b8b;stop-opacity:1.;"/>
</linearGradient>
</defs>
<polygon fill="url(#l_0)" stroke="#4c0000" points="181,-204 8,-204 8,-168 181,-168 181,-204"/>
<polygon fill="none" stroke="#4c0000" points="185,-208 4,-208 4,-164 185,-164 185,-208"/>
<polygon fill="none" stroke="#4c0000" points="189,-212 0,-212 0,-160 189,-160 189,-212"/>
<text text-anchor="middle" x="94.5" y="-182.3" font-family="Courier New" font-size="14.00">:sample&#45;lib&#45;android</text>
</g>
<!-- :sample&#45;app&#45;android&#45;&gt;:sample&#45;lib&#45;android -->
<g id="edge1" class="edge">
<title>:sample&#45;app&#45;android&#45;&gt;:sample&#45;lib&#45;android</title>
<path fill="none" stroke="red" stroke-dasharray="1,5" d="M180.22,-468.03C161.56,-406.84 124.44,-285.17 105.78,-223.97"/>
<polygon fill="none" stroke="red" points="180.31,-468.3 185.88,-472.88 183.81,-479.78 178.23,-475.21 180.31,-468.3"/>
<polygon fill="none" stroke="red" points="105.69,-223.7 100.12,-219.13 102.19,-212.22 107.77,-216.79 105.69,-223.7"/>
</g>
<!-- :sample&#45;lib&#45;kotlin&#45;mp -->
<g id="node5" class="node">
<title>:sample&#45;lib&#45;kotlin&#45;mp</title>
<polygon fill="mediumslateblue" stroke="#4c0000" points="368.5,-364 178.5,-364 178.5,-328 368.5,-328 368.5,-364"/>
<polygon fill="none" stroke="#4c0000" points="372.5,-368 174.5,-368 174.5,-324 372.5,-324 372.5,-368"/>
<polygon fill="none" stroke="#4c0000" points="376.5,-372 170.5,-372 170.5,-320 376.5,-320 376.5,-372"/>
<text text-anchor="middle" x="273.5" y="-342.3" font-family="Courier New" font-size="14.00" fill="white">:sample&#45;lib&#45;kotlin&#45;mp</text>
</g>
<!-- :sample&#45;app&#45;android&#45;&gt;:sample&#45;lib&#45;kotlin&#45;mp -->
<g id="edge2" class="edge">
<title>:sample&#45;app&#45;android&#45;&gt;:sample&#45;lib&#45;kotlin&#45;mp</title>
<path fill="none" stroke="red" stroke-dasharray="1,5" d="M210.05,-469.26C223.42,-443.49 241.41,-408.84 254.81,-383.01"/>
<polygon fill="none" stroke="red" points="210.02,-469.31 210.81,-476.48 204.49,-479.96 203.71,-472.8 210.02,-469.31"/>
<polygon fill="none" stroke="red" points="254.9,-382.83 254.12,-375.66 260.43,-372.18 261.22,-379.35 254.9,-382.83"/>
</g>
<!-- :sample&#45;lib&#45;kotlin&#45;jvm -->
<g id="node4" class="node">
<title>:sample&#45;lib&#45;kotlin&#45;jvm</title>
<polygon fill="mediumorchid" stroke="#4c0000" points="499.5,-44 301.5,-44 301.5,-8 499.5,-8 499.5,-44"/>
<polygon fill="none" stroke="#4c0000" points="503.5,-48 297.5,-48 297.5,-4 503.5,-4 503.5,-48"/>
<polygon fill="none" stroke="#4c0000" points="507.5,-52 293.5,-52 293.5,0 507.5,0 507.5,-52"/>
<text text-anchor="middle" x="400.5" y="-22.3" font-family="Courier New" font-size="14.00">:sample&#45;lib&#45;kotlin&#45;jvm</text>
</g>
<!-- :sample&#45;lib&#45;android&#45;&gt;:sample&#45;lib&#45;kotlin&#45;jvm -->
<g id="edge3" class="edge">
<title>:sample&#45;lib&#45;android&#45;&gt;:sample&#45;lib&#45;kotlin&#45;jvm</title>
<path fill="none" stroke="red" stroke-dasharray="1,5" d="M153.77,-154.39C207.79,-126.5 287.17,-85.52 341.2,-57.62"/>
<polygon fill="none" stroke="red" points="153.65,-154.46 150.15,-160.77 142.99,-159.96 146.48,-153.66 153.65,-154.46"/>
<polygon fill="none" stroke="red" points="341.33,-57.55 344.82,-51.25 351.99,-52.05 348.49,-58.36 341.33,-57.55"/>
</g>
<!-- :sample&#45;lib&#45;java -->
<g id="node3" class="node">
<title>:sample&#45;lib&#45;java</title>
<polygon fill="orange" stroke="#4c0000" points="364,-204 215,-204 215,-168 364,-168 364,-204"/>
<polygon fill="none" stroke="#4c0000" points="368,-208 211,-208 211,-164 368,-164 368,-208"/>
<polygon fill="none" stroke="#4c0000" points="372,-212 207,-212 207,-160 372,-160 372,-212"/>
<text text-anchor="middle" x="289.5" y="-182.3" font-family="Courier New" font-size="14.00">:sample&#45;lib&#45;java</text>
</g>
<!-- :sample&#45;lib&#45;kotlin&#45;mp&#45;&gt;:sample&#45;lib&#45;android -->
<g id="edge4" class="edge">
<title>:sample&#45;lib&#45;kotlin&#45;mp&#45;&gt;:sample&#45;lib&#45;android</title>
<path fill="none" stroke="red" d="M245.14,-319.96C214.59,-293 165.84,-249.97 132.11,-220.2"/>
<polygon fill="none" stroke="red" points="132.02,-220.12 124.88,-219.15 123.03,-212.18 130.17,-213.15 132.02,-220.12"/>
</g>
<!-- :sample&#45;lib&#45;kotlin&#45;mp&#45;&gt;:sample&#45;lib&#45;java -->
<g id="edge5" class="edge">
<title>:sample&#45;lib&#45;kotlin&#45;mp&#45;&gt;:sample&#45;lib&#45;java</title>
<path fill="none" stroke="orange" stroke-width="2" d="M276.04,-319.96C278.7,-293.69 282.9,-252.17 285.9,-222.52"/>
<polygon fill="orange" stroke="orange" stroke-width="2" points="285.94,-222.13 291.43,-212.63 286.45,-217.15 286.95,-212.18 286.95,-212.18 286.95,-212.18 286.45,-217.15 282.47,-211.73 285.94,-222.13 285.94,-222.13"/>
</g>
<!-- :sample&#45;lib&#45;kotlin&#45;mp&#45;&gt;:sample&#45;lib&#45;kotlin&#45;jvm -->
<g id="edge6" class="edge">
<title>:sample&#45;lib&#45;kotlin&#45;mp&#45;&gt;:sample&#45;lib&#45;kotlin&#45;jvm</title>
<path fill="none" stroke="red" d="M301.95,-319.6C327.54,-294.89 363.76,-254.88 381.5,-212 401.46,-163.75 403.78,-102.63 402.79,-64.16"/>
<polygon fill="none" stroke="red" points="402.78,-64.03 398.57,-58.18 402.34,-52.03 406.56,-57.88 402.78,-64.03"/>
</g>
</g>
</svg>
