<?xml version="1.0" encoding="UTF-8" standalone="no"?>
<!DOCTYPE svg PUBLIC "-//W3C//DTD SVG 1.1//EN"
 "http://www.w3.org/Graphics/SVG/1.1/DTD/svg11.dtd">
<!-- Generated by graphviz version 2.43.0 (0)
 -->
<!-- Title: %3 Pages: 1 -->
<svg width="563pt" height="585pt"
 viewBox="0.00 0.00 562.50 585.00" xmlns="http://www.w3.org/2000/svg" xmlns:xlink="http://www.w3.org/1999/xlink">
<g id="graph0" class="graph" transform="scale(1 1) rotate(0) translate(4 581)">
<title>%3</title>
<polygon fill="MidnightBlue" stroke="transparent" points="-4,4 -4,-581 558.5,-581 558.5,4 -4,4"/>
<!-- :sample&#45;app&#45;android -->
<g id="node1" class="node">
<title>:sample&#45;app&#45;android</title>
<polygon fill="limegreen" stroke="#4c0000" points="163,-563 8,-563 8,-539 163,-539 163,-533 181,-551 163,-569 163,-563"/>
<polygon fill="none" stroke="#4c0000" points="167,-567 4,-567 4,-535 167,-535 167,-529 185,-551 167,-573 167,-567"/>
<polygon fill="none" stroke="#4c0000" points="171,-571 0,-571 0,-531 171,-531 171,-525 189,-551 171,-577 171,-571"/>
<text text-anchor="middle" x="94.5" y="-547.3" font-family="Courier New" font-size="14.00">:sample&#45;app&#45;android</text>
</g>
<!-- :sample&#45;lib&#45;android -->
<g id="node2" class="node">
<title>:sample&#45;lib&#45;android</title>
<defs>
<linearGradient id="l_0" gradientUnits="userSpaceOnUse" x1="133.5" y1="-183" x2="133.5" y2="-219" >
<stop offset="0" style="stop-color:crimson;stop-opacity:1.;"/>
<stop offset="1" style="stop-color:#008b8b;stop-opacity:1.;"/>
</linearGradient>
</defs>
<polygon fill="url(#l_0)" stroke="#4c0000" points="220,-219 47,-219 47,-183 220,-183 220,-219"/>
<polygon fill="none" stroke="#4c0000" points="224,-223 43,-223 43,-179 224,-179 224,-223"/>
<polygon fill="none" stroke="#4c0000" points="228,-227 39,-227 39,-175 228,-175 228,-227"/>
<text text-anchor="middle" x="133.5" y="-197.3" font-family="Courier New" font-size="14.00">:sample&#45;lib&#45;android</text>
</g>
<!-- :sample&#45;app&#45;android&#45;&gt;:sample&#45;lib&#45;android -->
<g id="edge1" class="edge">
<title>:sample&#45;app&#45;android&#45;&gt;:sample&#45;lib&#45;android</title>
<path fill="none" stroke="red" stroke-dasharray="1,5" d="M89.1,-512.74C84.21,-472.39 78.96,-406.26 87.5,-350 93.43,-310.95 107.68,-268.03 118.76,-238.51"/>
<polygon fill="none" stroke="red" points="89.14,-512.98 93.87,-518.42 90.66,-524.88 85.93,-519.44 89.14,-512.98"/>
<polygon fill="none" stroke="red" points="118.83,-238.32 117.25,-231.29 123.13,-227.12 124.72,-234.15 118.83,-238.32"/>
<text text-anchor="middle" x="144" y="-372.3" font-family="Times,serif" font-size="14.00" fill="white">implementation</text>
</g>
<!-- :sample&#45;lib&#45;kotlin&#45;mp -->
<g id="node5" class="node">
<title>:sample&#45;lib&#45;kotlin&#45;mp</title>
<polygon fill="mediumslateblue" stroke="#4c0000" points="407.5,-394 217.5,-394 217.5,-358 407.5,-358 407.5,-394"/>
<polygon fill="none" stroke="#4c0000" points="411.5,-398 213.5,-398 213.5,-354 411.5,-354 411.5,-398"/>
<polygon fill="none" stroke="#4c0000" points="415.5,-402 209.5,-402 209.5,-350 415.5,-350 415.5,-402"/>
<text text-anchor="middle" x="312.5" y="-372.3" font-family="Courier New" font-size="14.00" fill="white">:sample&#45;lib&#45;kotlin&#45;mp</text>
</g>
<!-- :sample&#45;app&#45;android&#45;&gt;:sample&#45;lib&#45;kotlin&#45;mp -->
<g id="edge2" class="edge">
<title>:sample&#45;app&#45;android&#45;&gt;:sample&#45;lib&#45;kotlin&#45;mp</title>
<path fill="none" stroke="red" stroke-dasharray="1,5" d="M135.62,-517.37C174.47,-486.54 232.44,-440.54 271.31,-409.68"/>
<polygon fill="none" stroke="red" points="135.6,-517.38 133.39,-524.25 126.2,-524.84 128.41,-517.98 135.6,-517.38"/>
<polygon fill="none" stroke="red" points="271.36,-409.65 273.58,-402.78 280.76,-402.19 278.55,-409.05 271.36,-409.65"/>
<text text-anchor="middle" x="267" y="-459.8" font-family="Times,serif" font-size="14.00" fill="white">implementation</text>
</g>
<!-- :sample&#45;lib&#45;kotlin&#45;jvm -->
<g id="node4" class="node">
<title>:sample&#45;lib&#45;kotlin&#45;jvm</title>
<polygon fill="mediumorchid" stroke="#4c0000" points="546.5,-44 348.5,-44 348.5,-8 546.5,-8 546.5,-44"/>
<polygon fill="none" stroke="#4c0000" points="550.5,-48 344.5,-48 344.5,-4 550.5,-4 550.5,-48"/>
<polygon fill="none" stroke="#4c0000" points="554.5,-52 340.5,-52 340.5,0 554.5,0 554.5,-52"/>
<text text-anchor="middle" x="447.5" y="-22.3" font-family="Courier New" font-size="14.00">:sample&#45;lib&#45;kotlin&#45;jvm</text>
</g>
<!-- :sample&#45;lib&#45;android&#45;&gt;:sample&#45;lib&#45;kotlin&#45;jvm -->
<g id="edge3" class="edge">
<title>:sample&#45;lib&#45;android&#45;&gt;:sample&#45;lib&#45;kotlin&#45;jvm</title>
<path fill="none" stroke="red" stroke-dasharray="1,5" d="M189.7,-169.04C246.71,-137.63 334.46,-89.28 391.43,-57.89"/>
<polygon fill="none" stroke="red" points="189.67,-169.05 186.34,-175.45 179.16,-174.84 182.48,-168.45 189.67,-169.05"/>
<polygon fill="none" stroke="red" points="391.53,-57.84 394.86,-51.44 402.04,-52.05 398.72,-58.44 391.53,-57.84"/>
<text text-anchor="middle" x="356" y="-109.8" font-family="Times,serif" font-size="14.00" fill="white">implementation</text>
</g>
<!-- :sample&#45;lib&#45;java -->
<g id="node3" class="node">
<title>:sample&#45;lib&#45;java</title>
<polygon fill="orange" stroke="#4c0000" points="403,-219 254,-219 254,-183 403,-183 403,-219"/>
<polygon fill="none" stroke="#4c0000" points="407,-223 250,-223 250,-179 407,-179 407,-223"/>
<polygon fill="none" stroke="#4c0000" points="411,-227 246,-227 246,-175 411,-175 411,-227"/>
<text text-anchor="middle" x="328.5" y="-197.3" font-family="Courier New" font-size="14.00">:sample&#45;lib&#45;java</text>
</g>
<!-- :sample&#45;lib&#45;kotlin&#45;mp&#45;&gt;:sample&#45;lib&#45;android -->
<g id="edge4" class="edge">
<title>:sample&#45;lib&#45;kotlin&#45;mp&#45;&gt;:sample&#45;lib&#45;android</title>
<path fill="none" stroke="red" d="M285.87,-349.83C269.54,-334.36 248.25,-314.1 229.5,-296 208.88,-276.09 185.93,-253.63 167.65,-235.66"/>
<polygon fill="none" stroke="red" points="167.63,-235.65 160.55,-234.29 159.07,-227.23 166.16,-228.59 167.63,-235.65"/>
<text text-anchor="middle" x="240.5" y="-284.8" font-family="Times,serif" font-size="14.00" fill="white">api</text>
</g>
<!-- :sample&#45;lib&#45;kotlin&#45;mp&#45;&gt;:sample&#45;lib&#45;java -->
<g id="edge5" class="edge">
<title>:sample&#45;lib&#45;kotlin&#45;mp&#45;&gt;:sample&#45;lib&#45;java</title>
<path fill="none" stroke="orange" stroke-width="2" d="M283.02,-349.81C265.36,-331.51 248.03,-305.72 257.5,-281 264.23,-263.44 276.87,-247.33 289.64,-234.31"/>
<polygon fill="orange" stroke="orange" stroke-width="2" points="289.96,-233.99 300.27,-230.23 293.54,-230.5 297.12,-227.01 297.12,-227.01 297.12,-227.01 293.54,-230.5 293.98,-223.79 289.96,-233.99 289.96,-233.99"/>
<text text-anchor="middle" x="345.5" y="-284.8" font-family="Times,serif" font-size="14.00" fill="white">jvmMainImplementation</text>
</g>
<!-- :sample&#45;lib&#45;kotlin&#45;mp&#45;&gt;:sample&#45;lib&#45;kotlin&#45;jvm -->
<g id="edge6" class="edge">
<title>:sample&#45;lib&#45;kotlin&#45;mp&#45;&gt;:sample&#45;lib&#45;kotlin&#45;jvm</title>
<path fill="none" stroke="red" d="M373.51,-349.86C396.34,-337.21 419.99,-319.48 433.5,-296 475.7,-222.67 465.25,-118.65 455.49,-63.93"/>
<polygon fill="none" stroke="red" points="455.47,-63.87 450.43,-58.72 453.24,-52.08 458.29,-57.23 455.47,-63.87"/>
<text text-anchor="middle" x="474.5" y="-197.3" font-family="Times,serif" font-size="14.00" fill="white">api</text>
</g>
</g>
</svg>
