<?xml version="1.0" encoding="UTF-8" standalone="no"?>
<!DOCTYPE svg PUBLIC "-//W3C//DTD SVG 1.1//EN"
 "http://www.w3.org/Graphics/SVG/1.1/DTD/svg11.dtd">
<!-- Generated by graphviz version 2.43.0 (0)
 -->
<!-- Title: %3 Pages: 1 -->
<svg width="245pt" height="183pt"
 viewBox="0.00 0.00 245.10 182.91" xmlns="http://www.w3.org/2000/svg" xmlns:xlink="http://www.w3.org/1999/xlink">
<g id="graph0" class="graph" transform="scale(1 1) rotate(0) translate(4 178.91)">
<title>%3</title>
<polygon fill="white" stroke="transparent" points="-4,4 -4,-178.91 241.1,-178.91 241.1,4 -4,4"/>
<!-- :android:app -->
<g id="node1" class="node">
<title>:android:app</title>
<ellipse fill="none" stroke="black" cx="69.54" cy="-138" rx="69.59" ry="18"/>
<text text-anchor="middle" x="69.54" y="-134.3" font-family="Times,serif" font-size="14.00">:android:app</text>
</g>
<!-- :android:lib -->
<g id="node2" class="node">
<title>:android:lib</title>
<ellipse fill="none" stroke="black" cx="149.31" cy="-104.91" rx="63.89" ry="18"/>
<text text-anchor="middle" x="149.31" y="-101.21" font-family="Times,serif" font-size="14.00">:android:lib</text>
</g>
<!-- :android:app&#45;&gt;:android:lib -->
<g id="edge1" class="edge">
<title>:android:app&#45;&gt;:android:lib</title>
<path fill="none" stroke="black" d="M106.62,-122.62C106.76,-122.56 106.89,-122.51 107.02,-122.45"/>
<polygon fill="black" stroke="black" points="105.08,-127.05 112.98,-119.98 102.4,-120.58 105.08,-127.05"/>
</g>
<!-- :kotlin:kmp -->
<g id="node5" class="node">
<title>:kotlin:kmp</title>
<ellipse fill="none" stroke="black" cx="113.85" cy="-91.2" rx="63.09" ry="18"/>
<text text-anchor="middle" x="113.85" y="-87.5" font-family="Times,serif" font-size="14.00">:kotlin:kmp</text>
</g>
<!-- :android:app&#45;&gt;:kotlin:kmp -->
<g id="edge2" class="edge">
<title>:android:app&#45;&gt;:kotlin:kmp</title>
<path fill="none" stroke="black" d="M86.3,-120.31C87.66,-118.87 89.05,-117.41 90.44,-115.93"/>
<polygon fill="black" stroke="black" points="93.04,-118.28 97.37,-108.61 87.96,-113.46 93.04,-118.28"/>
</g>
<!-- :kotlin:jvm -->
<g id="node4" class="node">
<title>:kotlin:jvm</title>
<ellipse fill="none" stroke="black" cx="177.31" cy="-156.91" rx="59.59" ry="18"/>
<text text-anchor="middle" x="177.31" y="-153.21" font-family="Times,serif" font-size="14.00">:kotlin:jvm</text>
</g>
<!-- :android:lib&#45;&gt;:kotlin:jvm -->
<g id="edge3" class="edge">
<title>:android:lib&#45;&gt;:kotlin:jvm</title>
<path fill="none" stroke="black" d="M158.94,-122.8C160.16,-125.07 161.43,-127.42 162.7,-129.79"/>
<polygon fill="black" stroke="black" points="159.74,-131.66 167.56,-138.8 165.9,-128.34 159.74,-131.66"/>
</g>
<!-- :other -->
<g id="node6" class="node">
<title>:other</title>
<ellipse fill="none" stroke="black" cx="113.66" cy="-18" rx="38.19" ry="18"/>
<text text-anchor="middle" x="113.66" y="-14.3" font-family="Times,serif" font-size="14.00">:other</text>
</g>
<!-- :android:lib&#45;&gt;:other -->
<g id="edge4" class="edge">
<title>:android:lib&#45;&gt;:other</title>
<path fill="none" stroke="black" d="M141.92,-86.9C136.96,-74.82 130.35,-58.68 124.76,-45.07"/>
<polygon fill="black" stroke="black" points="127.95,-43.61 120.91,-35.69 121.47,-46.27 127.95,-43.61"/>
</g>
<!-- :java -->
<g id="node3" class="node">
<title>:java</title>
<ellipse fill="none" stroke="black" cx="174.96" cy="-23.89" rx="32.49" ry="18"/>
<text text-anchor="middle" x="174.96" y="-20.19" font-family="Times,serif" font-size="14.00">:java</text>
</g>
<!-- :java&#45;&gt;:other -->
<g id="edge5" class="edge">
<title>:java&#45;&gt;:other</title>
<path fill="none" stroke="black" d="M142.87,-20.81C142.81,-20.8 142.76,-20.8 142.7,-20.79"/>
<polygon fill="black" stroke="black" points="152.81,-18.25 142.52,-20.77 152.14,-25.22 152.81,-18.25"/>
</g>
<!-- :kotlin:kmp&#45;&gt;:android:lib -->
<g id="edge6" class="edge">
<title>:kotlin:kmp&#45;&gt;:android:lib</title>
<path fill="none" stroke="black" d="M149.2,-104.87C149.22,-104.88 149.24,-104.88 149.25,-104.89"/>
<polygon fill="black" stroke="black" points="138.68,-104.54 149.28,-104.9 141.22,-98.01 138.68,-104.54"/>
</g>
<!-- :kotlin:kmp&#45;&gt;:java -->
<g id="edge7" class="edge">
<title>:kotlin:kmp&#45;&gt;:java</title>
<path fill="none" stroke="black" d="M129.91,-73.52C137.05,-65.64 145.58,-56.25 153.28,-47.77"/>
<polygon fill="black" stroke="black" points="155.93,-50.06 160.06,-40.3 150.74,-45.36 155.93,-50.06"/>
</g>
<!-- :kotlin:kmp&#45;&gt;:kotlin:jvm -->
<g id="edge8" class="edge">
<title>:kotlin:kmp&#45;&gt;:kotlin:jvm</title>
<path fill="none" stroke="black" d="M130.86,-108.81C137.69,-115.88 145.68,-124.16 153.1,-131.84"/>
<polygon fill="black" stroke="black" points="150.79,-134.49 160.26,-139.25 155.83,-129.63 150.79,-134.49"/>
</g>
</g>
</svg>
