<?xml version="1.0" encoding="UTF-8" standalone="no"?>
<!DOCTYPE svg PUBLIC "-//W3C//DTD SVG 1.1//EN"
 "http://www.w3.org/Graphics/SVG/1.1/DTD/svg11.dtd">
<!-- Generated by graphviz version 2.43.0 (0)
 -->
<!-- Title: %3 Pages: 1 -->
<svg width="333pt" height="540pt"
 viewBox="0.00 0.00 332.50 540.00" xmlns="http://www.w3.org/2000/svg" xmlns:xlink="http://www.w3.org/1999/xlink">
<g id="graph0" class="graph" transform="scale(1 1) rotate(0) translate(4 536)">
<title>%3</title>
<polygon fill="MidnightBlue" stroke="transparent" points="-4,4 -4,-536 328.5,-536 328.5,4 -4,4"/>
<!-- :sample&#45;app&#45;android -->
<g id="node1" class="node">
<title>:sample&#45;app&#45;android</title>
<polygon fill="limegreen" stroke="#4c0000" points="220,-518 65,-518 65,-494 220,-494 220,-488 238,-506 220,-524 220,-518"/>
<polygon fill="none" stroke="#4c0000" points="224,-522 61,-522 61,-490 224,-490 224,-484 242,-506 224,-528 224,-522"/>
<polygon fill="none" stroke="#4c0000" points="228,-526 57,-526 57,-486 228,-486 228,-480 246,-506 228,-532 228,-526"/>
<text text-anchor="middle" x="151.5" y="-502.3" font-family="Courier New" font-size="14.00">:sample&#45;app&#45;android</text>
</g>
<!-- :sample&#45;lib&#45;android -->
<g id="node2" class="node">
<title>:sample&#45;lib&#45;android</title>
<defs>
<linearGradient id="l_0" gradientUnits="userSpaceOnUse" x1="94.5" y1="-168" x2="94.5" y2="-204" >
<stop offset="0" style="stop-color:crimson;stop-opacity:1.;"/>
<stop offset="1" style="stop-color:#008b8b;stop-opacity:1.;"/>
</linearGradient>
</defs>
<polygon fill="url(#l_0)" stroke="#4c0000" points="181,-204 8,-204 8,-168 181,-168 181,-204"/>
<polygon fill="none" stroke="#4c0000" points="185,-208 4,-208 4,-164 185,-164 185,-208"/>
<polygon fill="none" stroke="#4c0000" points="189,-212 0,-212 0,-160 189,-160 189,-212"/>
<text text-anchor="middle" x="94.5" y="-182.3" font-family="Courier New" font-size="14.00">:sample&#45;lib&#45;android</text>
</g>
<!-- :sample&#45;app&#45;android&#45;&gt;:sample&#45;lib&#45;android -->
<g id="edge1" class="edge">
<title>:sample&#45;app&#45;android&#45;&gt;:sample&#45;lib&#45;android</title>
<path fill="none" stroke="red" stroke-dasharray="1,5" d="M135.75,-468.27C125.23,-441.98 112.15,-405.46 105.5,-372 95.49,-321.61 93.68,-262.11 93.75,-224.46"/>
<polygon fill="none" stroke="red" points="135.83,-468.48 141.8,-472.52 140.37,-479.59 134.39,-475.54 135.83,-468.48"/>
<polygon fill="none" stroke="red" points="93.75,-224.11 89.79,-218.08 93.84,-212.11 97.79,-218.14 93.75,-224.11"/>
</g>
<!-- :sample&#45;lib&#45;kotlin&#45;mp -->
<g id="node4" class="node">
<title>:sample&#45;lib&#45;kotlin&#45;mp</title>
<polygon fill="mediumslateblue" stroke="#4c0000" points="312.5,-364 122.5,-364 122.5,-328 312.5,-328 312.5,-364"/>
<polygon fill="none" stroke="#4c0000" points="316.5,-368 118.5,-368 118.5,-324 316.5,-324 316.5,-368"/>
<polygon fill="none" stroke="#4c0000" points="320.5,-372 114.5,-372 114.5,-320 320.5,-320 320.5,-372"/>
<text text-anchor="middle" x="217.5" y="-342.3" font-family="Courier New" font-size="14.00" fill="white">:sample&#45;lib&#45;kotlin&#45;mp</text>
</g>
<!-- :sample&#45;app&#45;android&#45;&gt;:sample&#45;lib&#45;kotlin&#45;mp -->
<g id="edge2" class="edge">
<title>:sample&#45;app&#45;android&#45;&gt;:sample&#45;lib&#45;kotlin&#45;mp</title>
<path fill="none" stroke="red" stroke-dasharray="1,5" d="M166.59,-468.86C177.3,-443.23 191.61,-408.97 202.33,-383.31"/>
<polygon fill="none" stroke="red" points="166.58,-468.89 167.96,-475.97 161.96,-479.96 160.58,-472.89 166.58,-468.89"/>
<polygon fill="none" stroke="red" points="202.36,-383.25 200.98,-376.17 206.98,-372.18 208.36,-379.26 202.36,-383.25"/>
</g>
<!-- :sample&#45;lib&#45;kotlin&#45;jvm -->
<g id="node3" class="node">
<title>:sample&#45;lib&#45;kotlin&#45;jvm</title>
<polygon fill="mediumorchid" stroke="#4c0000" points="316.5,-44 118.5,-44 118.5,-8 316.5,-8 316.5,-44"/>
<polygon fill="none" stroke="#4c0000" points="320.5,-48 114.5,-48 114.5,-4 320.5,-4 320.5,-48"/>
<polygon fill="none" stroke="#4c0000" points="324.5,-52 110.5,-52 110.5,0 324.5,0 324.5,-52"/>
<text text-anchor="middle" x="217.5" y="-22.3" font-family="Courier New" font-size="14.00">:sample&#45;lib&#45;kotlin&#45;jvm</text>
</g>
<!-- :sample&#45;lib&#45;android&#45;&gt;:sample&#45;lib&#45;kotlin&#45;jvm -->
<g id="edge3" class="edge">
<title>:sample&#45;lib&#45;android&#45;&gt;:sample&#45;lib&#45;kotlin&#45;jvm</title>
<path fill="none" stroke="red" stroke-dasharray="1,5" d="M121.42,-150.42C141.89,-124.13 169.93,-88.1 190.44,-61.76"/>
<polygon fill="none" stroke="red" points="121.36,-150.5 120.83,-157.69 113.99,-159.96 114.52,-152.77 121.36,-150.5"/>
<polygon fill="none" stroke="red" points="190.53,-61.65 191.06,-54.46 197.9,-52.18 197.37,-59.37 190.53,-61.65"/>
</g>
<!-- :sample&#45;lib&#45;kotlin&#45;mp&#45;&gt;:sample&#45;lib&#45;android -->
<g id="edge4" class="edge">
<title>:sample&#45;lib&#45;kotlin&#45;mp&#45;&gt;:sample&#45;lib&#45;android</title>
<path fill="none" stroke="red" d="M198.01,-319.96C177.38,-293.46 144.66,-251.44 121.54,-221.74"/>
<polygon fill="none" stroke="red" points="121.47,-221.65 114.63,-219.37 114.1,-212.18 120.94,-214.46 121.47,-221.65"/>
</g>
<!-- :sample&#45;lib&#45;kotlin&#45;mp&#45;&gt;:sample&#45;lib&#45;kotlin&#45;jvm -->
<g id="edge5" class="edge">
<title>:sample&#45;lib&#45;kotlin&#45;mp&#45;&gt;:sample&#45;lib&#45;kotlin&#45;jvm</title>
<path fill="none" stroke="red" d="M217.5,-319.78C217.5,-264 217.5,-129.94 217.5,-64.38"/>
<polygon fill="none" stroke="red" points="217.5,-64.22 213.5,-58.22 217.5,-52.22 221.5,-58.22 217.5,-64.22"/>
</g>
</g>
</svg>
