<?xml version="1.0" encoding="UTF-8" standalone="no"?>
<!DOCTYPE svg PUBLIC "-//W3C//DTD SVG 1.1//EN"
 "http://www.w3.org/Graphics/SVG/1.1/DTD/svg11.dtd">
<!-- Generated by graphviz version 2.43.0 (0)
 -->
<!-- Title: %3 Pages: 1 -->
<svg width="380pt" height="661pt"
 viewBox="0.00 0.00 380.00 661.00" xmlns="http://www.w3.org/2000/svg" xmlns:xlink="http://www.w3.org/1999/xlink">
<g id="graph0" class="graph" transform="scale(1.39 1.39) rotate(0) translate(4 472)">
<title>%3</title>
<!-- :sample&#45;app&#45;android -->
<g id="node1" class="node">
<title>:sample&#45;app&#45;android</title>
<polygon fill="limegreen" stroke="transparent" points="207,-468 45,-468 45,-432 207,-432 207,-468"/>
<text text-anchor="middle" x="126" y="-446.3" font-family="Times,serif" font-size="14.00">:sample&#45;app&#45;android</text>
</g>
<!-- :sample&#45;lib&#45;android -->
<g id="node2" class="node">
<title>:sample&#45;lib&#45;android</title>
<polygon fill="lightgreen" stroke="transparent" points="154,-180 0,-180 0,-144 154,-144 154,-180"/>
<text text-anchor="middle" x="77" y="-158.3" font-family="Times,serif" font-size="14.00">:sample&#45;lib&#45;android</text>
</g>
<!-- :sample&#45;app&#45;android&#45;&gt;:sample&#45;lib&#45;android -->
<g id="edge1" class="edge">
<title>:sample&#45;app&#45;android&#45;&gt;:sample&#45;lib&#45;android</title>
<path fill="none" stroke="black" stroke-dasharray="1,5" d="M119.88,-431.87C111.64,-408.03 97.18,-363.32 90,-324 81.53,-277.61 78.58,-222.69 77.55,-190.47"/>
<polygon fill="black" stroke="black" points="81.04,-189.96 77.26,-180.07 74.04,-190.16 81.04,-189.96"/>
</g>
<!-- :sample&#45;lib&#45;kotlin&#45;mp -->
<g id="node4" class="node">
<title>:sample&#45;lib&#45;kotlin&#45;mp</title>
<polygon fill="mediumslateblue" stroke="transparent" points="265.5,-324 98.5,-324 98.5,-288 265.5,-288 265.5,-324"/>
<text text-anchor="middle" x="182" y="-302.3" font-family="Times,serif" font-size="14.00">:sample&#45;lib&#45;kotlin&#45;mp</text>
</g>
<!-- :sample&#45;app&#45;android&#45;&gt;:sample&#45;lib&#45;kotlin&#45;mp -->
<g id="edge2" class="edge">
<title>:sample&#45;app&#45;android&#45;&gt;:sample&#45;lib&#45;kotlin&#45;mp</title>
<path fill="none" stroke="black" stroke-dasharray="1,5" d="M132.75,-431.87C142.38,-407.46 160.14,-362.43 171.5,-333.64"/>
<polygon fill="black" stroke="black" points="174.81,-334.78 175.22,-324.19 168.3,-332.21 174.81,-334.78"/>
</g>
<!-- :sample&#45;lib&#45;kotlin&#45;jvm -->
<g id="node3" class="node">
<title>:sample&#45;lib&#45;kotlin&#45;jvm</title>
<polygon fill="mediumorchid" stroke="black" stroke-width="3" points="214,-36 44,-36 44,0 214,0 214,-36"/>
<text text-anchor="middle" x="129" y="-14.3" font-family="Times,serif" font-size="14.00">:sample&#45;lib&#45;kotlin&#45;jvm</text>
</g>
<!-- :sample&#45;lib&#45;android&#45;&gt;:sample&#45;lib&#45;kotlin&#45;jvm -->
<g id="edge3" class="edge">
<title>:sample&#45;lib&#45;android&#45;&gt;:sample&#45;lib&#45;kotlin&#45;jvm</title>
<path fill="none" stroke="black" stroke-dasharray="1,5" d="M83.27,-143.87C92.21,-119.46 108.7,-74.43 119.25,-45.64"/>
<polygon fill="black" stroke="black" points="122.55,-46.78 122.71,-36.19 115.98,-44.38 122.55,-46.78"/>
</g>
<!-- :sample&#45;lib&#45;kotlin&#45;mp&#45;&gt;:sample&#45;lib&#45;android -->
<g id="edge4" class="edge">
<title>:sample&#45;lib&#45;kotlin&#45;mp&#45;&gt;:sample&#45;lib&#45;android</title>
<path fill="none" stroke="black" d="M169.33,-287.87C151.05,-263.14 117.11,-217.24 95.86,-188.51"/>
<polygon fill="black" stroke="black" points="98.47,-186.15 89.71,-180.19 92.84,-190.31 98.47,-186.15"/>
</g>
<!-- :sample&#45;lib&#45;kotlin&#45;mp&#45;&gt;:sample&#45;lib&#45;kotlin&#45;jvm -->
<g id="edge5" class="edge">
<title>:sample&#45;lib&#45;kotlin&#45;mp&#45;&gt;:sample&#45;lib&#45;kotlin&#45;jvm</title>
<path fill="none" stroke="black" d="M180.82,-287.95C178.6,-258.42 173.07,-195.95 163,-144 156.34,-109.65 145.22,-70.89 137.52,-45.76"/>
<polygon fill="black" stroke="black" points="140.86,-44.71 134.55,-36.2 134.17,-46.79 140.86,-44.71"/>
</g>
</g>
</svg>
